<?xml version="1.0" encoding="UTF-8" standalone="no"?>
<!-- Created with Inkscape (http://www.inkscape.org/) -->

<svg
   width="1000"
   height="193.44501"
   id="svg2"
   version="1.1"
   inkscape:version="1.2.1 (9c6d41e4, 2022-07-14)"
   sodipodi:docname="Retroplex_logo.svg"
   xmlns:inkscape="http://www.inkscape.org/namespaces/inkscape"
   xmlns:sodipodi="http://sodipodi.sourceforge.net/DTD/sodipodi-0.dtd"
   xmlns="http://www.w3.org/2000/svg"
   xmlns:svg="http://www.w3.org/2000/svg">
  <defs
     id="defs3163" />
  <sodipodi:namedview
     id="namedview3161"
     pagecolor="#ffffff"
     bordercolor="#000000"
     borderopacity="0.25"
     inkscape:showpageshadow="2"
     inkscape:pageopacity="0.0"
     inkscape:pagecheckerboard="0"
     inkscape:deskcolor="#d1d1d1"
     showgrid="false"
     inkscape:zoom="0.61871843"
     inkscape:cx="208.49549"
     inkscape:cy="68.690373"
     inkscape:window-width="1390"
     inkscape:window-height="1205"
     inkscape:window-x="0"
     inkscape:window-y="25"
     inkscape:window-maximized="0"
     inkscape:current-layer="layer1" />
  <g
     inkscape:label="Layer 1"
     inkscape:groupmode="layer"
     id="layer1"
     transform="translate(-575.65187,-653.20874)">
    <g
       id="g3312"
       transform="matrix(1.4436197,0,0,1.4436197,-255.37049,-289.77624)"
       style="stroke-width:0.692703">
      <path
         id="path3270"
         d="m 575.65187,682.7959 h 38.14284 v 38.09175 h -38.14284 z"
         style="fill:#c53139;fill-rule:nonzero;stroke:none;stroke-width:0.692703" />
      <path
         id="path3272"
         d="m 613.80201,682.7959 h 38.14285 v 38.09175 h -38.14285 z"
         style="fill:#1b559e;fill-rule:nonzero;stroke:none;stroke-width:0.692703" />
      <path
         id="path3274"
         d="m 613.80201,720.88035 h 38.14285 v 38.09174 h -38.14285 z"
         style="fill:#53b44c;fill-rule:nonzero;stroke:none;stroke-width:0.692703" />
      <path
         id="path3276"
         d="m 575.65187,720.88035 h 38.14284 v 38.09174 h -38.14284 z"
         style="fill:#f5b721;fill-rule:nonzero;stroke:none;stroke-width:0.692703" />
      <path
         id="path3278"
         d="M 673.29025,758.91369 V 682.2703 h 19.98758 v 14.32273 h 0.2993 c 1.86882,-4.76694 5.13194,-8.67978 9.76749,-11.76041 4.63554,-3.08062 9.51928,-4.62094 14.65853,-4.62094 1.56951,0 3.10253,0.2482 4.58444,0.74461 v 19.62987 c -2.18272,-0.5475 -4.72314,-0.8249 -7.59937,-0.8249 -13.90662,0 -20.86359,8.20527 -20.86359,24.60852 v 34.54391 z"
         style="fill:#000000;fill-rule:nonzero;stroke:none;stroke-width:0.692703" />
      <path
         id="path3280"
         d="m 745.17399,712.36117 h 34.38331 c -1.98562,-10.8041 -7.59207,-16.20615 -16.81935,-16.20615 -5.95686,0 -10.5194,1.97102 -13.69492,5.89846 -2.37983,2.94922 -3.67194,6.38025 -3.86904,10.30769 m 55.4075,13.37372 h -55.4075 c 0.59861,12.86271 6.88396,19.29407 18.87067,19.29407 4.05884,0 7.71617,-1.07311 10.9939,-3.21933 3.06603,-1.84691 4.94944,-4.04423 5.64295,-6.57736 h 18.57137 c -5.62836,17.16246 -17.57126,25.74003 -35.82873,25.74003 -11.9429,0 -21.44029,-3.73033 -28.49945,-11.191 -7.05186,-7.45336 -10.5851,-17.16245 -10.5851,-29.11266 0,-11.6582 3.62814,-21.31619 10.8844,-28.97396 7.24897,-7.65046 16.65145,-11.483 28.20015,-11.483 12.43202,0 22.0535,4.65014 28.86446,13.94313 6.32186,8.50457 9.08128,19.03127 8.29288,31.58008"
         style="fill:#000000;fill-rule:nonzero;stroke:none;stroke-width:0.692703" />
      <path
         id="path3282"
         d="m 839.70254,659.37729 v 22.89301 h 15.45424 v 14.14753 h -15.45424 v 37.91654 c 0,3.56243 0.5986,5.92765 1.78851,7.11756 1.18991,1.18261 3.56244,1.77392 7.13217,1.77392 2.37252,0 4.55524,-0.19711 6.53356,-0.59861 v 16.32295 c -2.94923,0.4891 -7.02997,0.7373 -12.24221,0.7373 -16.03095,0 -24.04642,-6.05905 -24.04642,-18.18446 v -45.0852 H 806.01274 V 682.2703 h 12.85541 v -22.89301 z"
         style="fill:#000000;fill-rule:nonzero;stroke:none;stroke-width:0.692703" />
      <path
         id="path3284"
         d="M 871.01252,758.91369 V 682.2703 h 19.98758 v 14.32273 h 0.292 c 1.87612,-4.76694 5.13195,-8.67978 9.77479,-11.76041 4.63554,-3.08062 9.51928,-4.62094 14.65123,-4.62094 1.57681,0 3.10983,0.2482 4.59174,0.74461 v 19.62987 c -2.18272,-0.5475 -4.72314,-0.8249 -7.59937,-0.8249 -13.91392,0 -20.86359,8.20527 -20.86359,24.60852 v 34.54391 z"
         style="fill:#000000;fill-rule:nonzero;stroke:none;stroke-width:0.692703" />
      <path
         id="path3286"
         d="m 944.18107,720.66864 c 0,6.98617 1.33592,12.54882 4.00774,16.68065 3.16823,5.12465 8.02277,7.67967 14.56363,7.67967 12.48311,0 18.72467,-8.11767 18.72467,-24.36032 0,-16.33754 -6.24156,-24.51362 -18.72467,-24.51362 -12.38091,0 -18.57137,8.17608 -18.57137,24.51362 m -20.83438,0 c 0,-12.25681 3.59163,-22.05349 10.77489,-29.41196 7.18327,-7.35847 16.72445,-11.045 28.63086,-11.045 12.00131,0 21.59359,3.68653 28.77686,11.045 7.18326,7.35847 10.7749,17.15515 10.7749,29.41196 0,12.14731 -3.59164,21.9075 -10.7749,29.26597 -7.18327,7.35846 -16.77555,11.03769 -28.77686,11.03769 -11.90641,0 -21.44759,-3.67923 -28.63086,-11.03769 -7.18326,-7.35847 -10.77489,-17.11866 -10.77489,-29.26597"
         style="fill:#000000;fill-rule:nonzero;stroke:none;stroke-width:0.692703" />
      <path
         id="path3288"
         d="m 1078.1446,720.71974 c 0,-8.86958 -1.9272,-16.26454 -5.7598,-22.17759 -4.5333,-6.90587 -10.9355,-10.3588 -19.2064,-10.3588 -17.8268,0 -26.7329,10.8479 -26.7329,32.53639 0,8.97178 1.971,16.36675 5.9058,22.1849 4.7304,6.90586 11.6655,10.3515 20.8271,10.3515 8.2709,0 14.6731,-3.44564 19.2064,-10.3515 3.8326,-5.91305 5.7598,-13.30802 5.7598,-22.1849 m -61.2184,66.489 V 682.5258 h 8.5922 v 14.51253 h 0.292 c 2.1827,-5.16114 5.7306,-9.25648 10.6289,-12.28601 4.9056,-3.02222 10.4829,-4.54064 16.7318,-4.54064 11.096,0 19.7685,4.05884 26.0101,12.16921 5.6502,7.32197 8.4754,16.76825 8.4754,28.33885 0,11.57791 -2.8179,21.02419 -8.4462,28.33886 -6.227,8.11767 -14.8702,12.16921 -25.9371,12.16921 -5.935,0 -11.264,-1.43812 -16.0091,-4.31434 -5.037,-2.97843 -8.5484,-7.14677 -10.5194,-12.50501 h -0.2993 v 42.80028 z"
         style="fill:#000000;fill-rule:nonzero;stroke:none;stroke-width:0.692703" />
      <path
         id="path3290"
         d="m 1102.1545,653.20874 h 9.5193 v 105.70495 h -9.5193 z"
         style="fill:#000000;fill-rule:nonzero;stroke:none;stroke-width:0.692703" />
      <path
         id="path3292"
         d="m 1134.9464,715.19359 h 49.3776 c -0.1971,-7.43876 -2.4163,-13.70222 -6.6576,-18.79036 -4.5334,-5.47505 -10.3953,-8.21988 -17.5932,-8.21988 -7.1906,0 -13.1036,2.78863 -17.7392,8.37318 -4.1391,4.89104 -6.6065,11.1034 -7.3876,18.63706 m 58.8969,7.97168 h -58.8969 c 0.095,7.90597 2.0805,14.62933 5.9422,20.16278 4.6648,6.62116 11.1107,9.92809 19.3379,9.92809 12.6948,0 20.7249,-6.50436 24.0975,-19.50578 h 9.5193 c -4.2851,18.32317 -15.4834,27.47745 -33.6095,27.47745 -11.556,0 -20.4183,-4.00774 -26.5941,-12.01591 -5.4751,-7.21977 -8.2126,-16.71715 -8.2126,-28.49216 0,-11.1764 2.7229,-20.46938 8.1761,-27.89355 6.2488,-8.40967 15.0746,-12.61451 26.4773,-12.61451 11.5998,0 20.4256,4.49684 26.47,13.48322 5.2561,7.79647 7.687,17.62236 7.2928,29.47037"
         style="fill:#000000;fill-rule:nonzero;stroke:none;stroke-width:0.692703" />
      <path
         id="path3294"
         d="m 1197.3692,758.91369 29.6091,-39.66856 -27.3898,-36.71933 h 11.6947 l 21.7615,29.01776 21.3162,-29.01776 h 11.6947 l -27.5359,36.56603 29.8354,39.82186 h -11.8553 l -24.0099,-32.12759 -23.5647,32.12759 z"
         style="fill:#000000;fill-rule:nonzero;stroke:none;stroke-width:0.692703" />
    </g>
  </g>
</svg>
