<?xml version="1.0" encoding="UTF-8" standalone="no"?>
<!-- Generator: Adobe Illustrator 16.0.0, SVG Export Plug-In . SVG Version: 6.00 Build 0)  -->

<svg
   version="1.1"
   id="Layer_1"
   x="0px"
   y="0px"
   width="7187.3467"
   height="3037.3887"
   viewBox="0 0 7187.3465 3037.3886"
   enable-background="new 0 0 999.999 422.601"
   xml:space="preserve"
   sodipodi:docname="CatDog.svg"
   inkscape:version="1.3.2 (091e20e, 2023-11-25, custom)"
   xmlns:inkscape="http://www.inkscape.org/namespaces/inkscape"
   xmlns:sodipodi="http://sodipodi.sourceforge.net/DTD/sodipodi-0.dtd"
   xmlns="http://www.w3.org/2000/svg"
   xmlns:svg="http://www.w3.org/2000/svg"><defs
   id="defs16">
	
	
	
	
	
	
	
	
	
	
	
	
	
	
	
	
</defs><sodipodi:namedview
   id="namedview16"
   pagecolor="#ffffff"
   bordercolor="#000000"
   borderopacity="0.25"
   inkscape:showpageshadow="2"
   inkscape:pageopacity="0.0"
   inkscape:pagecheckerboard="0"
   inkscape:deskcolor="#d1d1d1"
   inkscape:zoom="0.1815938"
   inkscape:cx="3595.9377"
   inkscape:cy="1987.9533"
   inkscape:window-width="1920"
   inkscape:window-height="1112"
   inkscape:window-x="-8"
   inkscape:window-y="-8"
   inkscape:window-maximized="1"
   inkscape:current-layer="Layer_1" />
<g
   id="g17"
   transform="matrix(7.187355,0,0,7.187355,0,0.00857733)"><path
     d="m 863.189,16.556 c 13.51,31.124 35.577,58.418 49.313,89.305 7.659,10.833 15.082,21.663 20.04,33.609 3.151,7.217 8.558,13.089 10.806,20.533 9.014,16.474 15.759,33.824 27.473,49.404 6.53,13.305 13.963,26.375 21.626,39.46 -0.677,6.304 10.133,7.218 6.971,13.982 -10.611,8.778 -19.86,18.922 -30.908,26.576 -26.391,24.782 -55.943,48.442 -74.67,79.545 -12.418,13.736 -19.872,29.741 -31.823,43.71 l -2.71,-2.705 -7.166,-59.974 c -3.845,-3.151 -9.922,-0.688 -14.429,-2.258 -66.066,0.162 -130.998,2.824 -197.054,7.967 -42.838,-0.708 -85.449,-5.463 -128.729,-2.342 -52.319,-3.42 -139.114,5.306 -191.869,3.688 -51.18,-4.077 -106.646,6.24 -157.824,-2.805 -8.563,0.666 -6.314,10.595 -8.132,16.231 0.215,16.914 -2.721,33.588 -3.86,50.265 -1.129,1.366 -2.248,2.044 -3.84,1.807 C 123.658,399.552 113.751,368.88 88.527,346.76 78.152,331.432 64.868,317.212 54.058,302.321 36.712,278.421 22.072,253.375 4.281,229.694 2.032,227.209 2.032,224.057 0,221.572 39.932,181.014 69.271,135.939 97.94,90.648 c 10.605,-14.655 19.856,-30.876 30.913,-45.979 7.9,-10.364 15.581,-21.411 23.701,-31.307 1.346,0 2.7,-0.226 3.377,1.118 -0.903,6.766 -0.914,12.628 -0.01,19.384 0.667,13.537 -1.15,26.391 -0.709,39.007 11.724,1.372 23.905,0.011 36.308,1.167 17.351,0.461 34.717,-0.883 52.078,1.171 14.871,-1.14 33.36,2.496 48.016,-1.109 39.912,-4.712 89.732,4.571 129.859,0.526 47.807,-2.885 112.743,-0.814 162.11,-1.451 25.703,-3.819 52.309,-3.797 78.898,-1.98 9.257,2.711 18.948,1.376 28.188,2.732 12.858,-0.452 25.262,0.699 37.879,0.914 l 12.965,1.59 c 12.391,1.13 17.019,1.366 29.646,0.248 7.659,0.92 13.19,-1.329 23.455,-0.656 3.151,0.909 14.955,-1.397 19.052,-1.781 11.835,-1.13 10.47,0.903 19.72,-2.022 5.411,3.388 7.681,-3.609 11.95,-4.277 2.722,-23.664 3.908,-44.244 3.467,-67.914 9.846,-0.75 9.664,12.686 14.386,16.527"
     id="path1"
     style="fill:#000000;fill-opacity:1" /><path
     fill="#ffdd00"
     d="m 988.372,257.54 c -7.496,-6.756 -11.427,-15.071 -15.203,-23.107 -2.784,-5.973 -5.431,-11.599 -9.518,-16.826 -5.438,-7.843 -9.649,-16.246 -13.716,-24.368 -3.282,-6.54 -6.682,-13.306 -10.664,-19.698 l -0.162,-0.247 -0.073,-0.279 c -3.893,-12.869 -10.38,-25.128 -16.663,-36.984 -1.948,-3.671 -3.95,-7.455 -5.856,-11.22 -9.22,-12.192 -16.899,-25.272 -22.803,-38.893 -10.675,-17.719 -16.73,-28.766 -25.088,-44.052 l -5.994,-10.92 c -1.407,-1.713 -4.807,-6.141 -7.885,-12.167 -0.132,5.022 -0.132,10.165 -0.121,15.513 0.031,10.243 0.042,20.838 -0.997,31.112 0.893,1.461 3.225,5.259 3.215,5.238 2.216,3.487 0.235,7.317 -2.549,9.402 0,0 -0.552,0.399 -0.563,0.399 l -0.666,0.031 -23.019,0.81 c -14.204,0.525 -27.62,1.03 -41.776,1.171 -18.479,3.562 -36.025,4.723 -50.844,3.377 -1.55,0.411 -4.087,-0.12 -9.539,-1.396 -4.065,-0.971 -8.651,-2.022 -11.21,-2.033 -5.595,0.21 -10.994,-0.356 -16.189,-0.903 -6.067,-0.636 -12.329,-1.293 -19.021,-0.694 -0.378,0 -36.801,0.646 -53.06,-0.494 -13.212,-0.215 -26.38,0.904 -39.13,1.98 -13.94,1.172 -28.365,2.4 -42.543,1.807 l -0.11,-0.011 -0.115,-0.02 c -19.604,-2.968 -45.144,-2.022 -69.822,-1.109 -18.696,0.677 -36.35,1.324 -51.306,0.367 -3.861,0.709 -9.896,0.647 -16.331,0.558 -7.044,-0.105 -15.029,-0.215 -18.738,0.914 l -0.409,0.121 -0.421,-0.031 c -8.377,-0.789 -16.751,-0.993 -24.831,-1.177 -10.469,-0.246 -21.29,-0.483 -32.173,-2.064 -14.42,-2.679 -27.789,-1.634 -41.951,-0.516 -10.249,0.804 -20.849,1.634 -31.958,0.946 h -0.174 l -0.173,-0.042 c -3.419,-0.767 -7.228,-0.472 -11.273,-0.163 -4.785,0.378 -9.733,0.709 -14.382,-0.7 -6.146,0.268 -12.513,-0.02 -18.664,-0.299 -8.341,-0.369 -16.957,-0.767 -24.831,0.246 l -0.268,0.033 -0.263,-0.022 c -10.627,-1.324 -21.999,-2.484 -33.797,-1.181 -2.165,0.641 -6.661,2.011 -8.5,-2.422 l -0.257,-0.593 0.126,-0.657 c 2.431,-11.909 3.229,-26.539 2.473,-44.492 -18.085,25.634 -35.509,51.903 -52.372,77.38 l -33.251,49.777 c -9.486,17.881 -23.517,33.619 -37.1,48.842 -4.781,5.358 -9.698,10.9 -14.351,16.436 l 1.171,2.791 c 11.52,14.035 21.506,27.798 29.626,40.941 5.206,6.701 10.113,13.719 14.865,20.495 7.533,10.79 15.324,21.937 24.38,31.833 l 0.093,0.116 0.101,0.13 c 7.496,11.169 16.222,21.602 24.658,31.671 11.692,13.969 23.806,28.435 32.672,45.003 l -0.141,-0.236 c 0.903,1.302 1.322,2.71 1.7,3.949 0.384,1.287 0.72,2.416 1.514,3.288 l 0.194,0.226 0.132,0.248 c 0.062,0.132 0.126,0.193 0.193,0.314 0.074,-4.659 0.936,-9.523 1.839,-14.257 0.809,-4.313 1.57,-8.398 1.702,-12.103 0.147,-4.322 -0.016,-8.204 -0.131,-11.65 -0.389,-10.102 -0.688,-18.08 6.897,-26.56 l 1.245,-1.386 1.55,1.019 c 3.089,2.075 10.059,5.206 12.338,3.81 l 0.636,-0.391 0.729,0.09 c 0,0 13.527,1.592 13.332,1.57 32.018,0.873 63.493,0.568 96.813,0.248 27.346,-0.279 55.638,-0.552 84.404,-0.132 0.088,0 8.919,0.011 12.182,-0.42 9.455,-0.946 28.764,-1.193 47.439,-1.45 17.502,-0.236 34.018,-0.441 42.344,-1.182 2.237,-0.872 4.37,-0.688 6.104,-0.499 1.796,0.204 2.958,0.294 4.007,-0.342 l 0.531,-0.31 0.625,0.01 c 14.077,0.3 28.907,0.012 43.231,-0.272 29.469,-0.578 59.926,-1.183 88.995,3.067 30.058,1.313 60.026,-0.216 93.334,-2.185 l 20.849,-0.495 c 14.32,-0.309 27.852,-0.588 43.033,-1.496 10.726,0 21.158,-0.426 31.238,-0.846 17.913,-0.746 36.43,-1.519 56.643,0.236 l 0.573,0.052 0.473,0.332 2.248,1.585 1.15,0.795 -0.268,1.365 c -0.904,4.616 -0.1,9.24 0.751,14.104 0.525,2.979 1.034,6.058 1.15,9.136 1.539,5.358 2.132,10.605 2.679,15.705 0.441,3.972 0.861,7.79 1.713,11.468 0.278,-0.268 0.535,-0.556 0.814,-0.819 1.68,-1.571 3.271,-3.041 3.776,-5.001 l 0.089,-0.31 0.168,-0.258 c 14.152,-22.851 52.761,-69.995 71.231,-86.979 l 0.256,-0.262 0.337,-0.137 c 3.786,-1.64 7.002,-4.628 10.412,-7.801 2.163,-2.013 4.4,-4.045 6.812,-5.778 4.828,-5.379 10.553,-9.886 16.095,-14.23 4.817,-3.776 9.777,-7.694 14.168,-12.182 -0.021,-0.288 -0.131,-0.635 -0.421,-1.234 -0.136,-0.313 -0.263,-0.707 -0.414,-1.074"
     id="path2"
     style="fill:#ffea00;fill-opacity:1" /><path
     id="path5"
     style="fill:#ff0000;fill-opacity:1"
     d="m 292.725,99.584 c 6.539,13.069 6.745,28.854 10.348,43.289 3.593,12.628 6.282,25.703 11.242,37.878 -0.462,15.774 9.444,27.068 8.079,43.29 2.925,23.003 15.759,41.96 16.2,66.076 2.689,9.691 5.164,20.292 13.957,27.058 -0.677,9.929 -15.117,3.152 -20.97,5.862 -4.958,-2.475 -11.734,3.142 -14.65,-2.721 -1.57,-7.885 11.047,-3.829 8.572,-12.392 0.452,-9.923 -4.947,-17.366 -3.592,-27.735 -0.894,-6.088 -4.949,-11.058 -4.949,-17.817 -2.022,-3.389 -4.045,-7.896 -7.659,-9.703 -14.203,0.452 -29.983,-1.365 -42.617,1.539 -13.069,4.97 -6.324,22.1 -13.542,31.339 -0.452,9.702 -7.003,22.546 1.55,29.769 1.581,0.452 3.387,1.13 3.839,2.7 0,2.033 -0.01,4.517 -2.258,4.969 -7.896,-1.581 -16.458,-1.592 -23.669,-0.02 -4.745,0.45 -4.96,-4.282 -3.83,-7.675 0.892,-3.152 4.958,-0.437 6.996,-2.013 7.885,-9.25 8.348,-21.643 10.842,-33.141 8.121,-18.938 8.594,-41.03 13.111,-61.549 6.545,-13.511 6.566,-29.983 12.429,-43.946 0.688,-12.392 7.012,-22.325 7.012,-35.168 5.421,-11.488 4.529,-25.702 7.691,-38.32 1.586,-1.354 3.619,-1.806 5.868,-1.569 m -5.448,52.97 c -1.57,1.345 -2.71,2.937 -3.151,4.964 -2.947,14.65 -7.691,28.849 -8.831,44.182 -2.473,4.281 -1.807,9.918 -2.71,14.649 -3.162,8.789 -9.041,20.277 -2.054,29.317 12.629,0.452 26.375,1.581 37.202,-1.118 2.936,-1.561 3.84,-5.175 3.388,-8.552 -8.1,-15.118 -6.519,-34.275 -11.909,-50.523 -6.544,-7.885 -5.63,-18.932 -6.975,-29.08 -0.452,-2.258 -2.938,-3.613 -4.96,-3.839 m 149.294,-50.848 c 1.334,15.785 1.108,32.018 6.057,45.989 -1.581,1.14 -3.614,0.463 -5.411,0.667 -1.586,-3.377 -1.586,-7.196 -2.253,-10.81 -2.022,-6.991 -2.022,-14.651 -7.422,-20.077 -9.692,-2.475 -25.698,-7.443 -33.146,2.237 -0.914,22.541 4.475,44.641 0.625,66.519 0.667,11.493 1.56,25.014 0.431,37.191 -0.688,17.129 3.582,33.597 0.41,50.511 2.022,10.833 0.667,22.536 2.688,34.033 1.797,2.717 3.83,6.319 7.208,7.45 3.377,0.235 6.98,-0.441 9.024,2.721 1.344,5.4 -4.744,2.237 -7.002,3.829 -13.973,0.883 -27.058,0.431 -40.579,1.087 -2.022,-1.354 -4.734,-1.807 -5.863,-3.829 1.592,-6.546 11.94,-0.216 13.984,-8.115 6.544,-13.296 3.403,-28.85 4.994,-44.408 -1.344,-19.158 2.496,-37.868 -1.087,-56.821 2.485,-17.131 -0.431,-36.729 0.484,-54.557 -0.215,-10.585 -1.334,-20.954 -0.882,-32.012 -0.667,-4.501 -5.853,-7.212 -9.24,-9.029 -5.627,1.806 -12.625,0.225 -16.905,5.411 -7.443,2.237 -6.325,11.031 -10.164,16.226 l -2.259,12.843 c -1.119,0.903 -3.378,2.475 -4.281,0.667 -0.441,-14.641 0.698,-30.663 1.15,-45.086 -0.667,-4.732 4.959,-4.732 8.122,-3.604 4.506,2.485 10.369,1.818 15.559,2.71 20.061,0.021 35.846,0.032 54.788,-2.205 6.304,1.581 12.617,-0.215 17.818,-2.69 1.797,0.216 2.927,1.344 3.152,3.152 m -218.47,5.263 c -0.01,13.973 4.26,26.827 2.669,40.579 h -1.572 c -0.441,-10.369 -4.954,-19.399 -10.805,-27.509 -0.215,-9.477 -10.81,-9.241 -15.78,-14.662 -5.625,0.442 -13.521,-1.15 -17.801,3.809 -12.182,5.411 -12.417,19.395 -19.636,28.624 -5.657,18.033 -11.294,35.845 -9.74,56.805 -1.139,19.168 -2.504,36.76 1.088,55.239 -1.129,11.945 3.592,21.637 6.519,32.017 2.011,9.702 8.783,17.818 12.386,27.068 6.982,8.789 17.792,14.672 30.195,11.293 11.051,-3.818 16.925,-15.542 20.086,-25.46 -0.441,-6.529 2.936,-11.504 3.388,-17.817 l 4.732,0.461 c 0.226,12.849 -0.237,26.833 -1.603,39.676 -4.732,2.701 -9.69,5.411 -15.103,6.304 -7.673,5.18 -19.161,1.334 -28.187,3.357 -6.98,-1.346 -14.424,-2.947 -18.937,-9.252 -6.756,-1.581 -6.98,-10.153 -12.392,-13.53 -9.681,-15.785 -15.297,-33.157 -15.06,-52.996 -3.377,-6.314 -2.474,-14.426 -4.949,-21.181 3.39,-13.999 -4.484,-26.617 0.484,-39.922 2.721,-17.808 5.195,-35.395 11.52,-51.406 4.749,-5.173 2.727,-13.06 9.267,-17.34 4.517,-11.725 18.037,-17.135 28.65,-22.304 13.749,-0.904 29.765,-1.104 40.581,8.147" /><path
     id="path16"
     style="fill:#00a7f9;fill-opacity:1"
     d="m 609.345,309.696 c 0.441,6.98 1.12,15.779 -2.269,22.099 -1.129,1.346 -2.7,0.226 -3.829,-0.452 -5.186,-6.781 -5.401,-14.892 -4.723,-22.787 0.678,-2.248 2.259,-3.604 4.292,-5.399 4.282,-0.453 4.506,4.28 6.529,6.539 m 150.391,-16.127 c 1.582,2.705 3.829,5.856 2.249,9.246 -3.614,6.087 -6.54,-2.271 -10.821,-0.689 2.475,-4.044 -4.281,-6.319 -1.118,-10.815 3.377,-1.118 5.637,-2.033 9.24,-1.57 z m 141.83,-25.823 c 0.226,1.346 -0.452,2.259 -1.581,2.7 -2.475,-0.441 -3.151,-1.807 -2.71,-4.286 0.462,-0.678 1.14,-1.571 2.043,-1.141 0.453,0.915 1.356,1.808 2.248,2.727 m -285.644,-2.459 c 0.216,2.248 -0.451,3.842 -1.807,5.412 h -1.581 c 0.451,-1.355 -0.452,-2.271 -1.581,-2.712 l 0.462,-4.732 c 2.7,-0.904 3.151,1.128 4.507,2.032 m 209.907,-13.384 c -0.902,2.699 2.475,4.061 0.441,6.546 -2.037,4.281 -5.19,1.118 -7.438,4.271 -2.71,-3.152 -3.387,-7.675 -2.248,-11.956 2.7,-2.013 7.213,-3.142 9.245,1.139 m 88.15,-2.632 c 2.475,3.829 -2.031,6.54 -3.84,8.778 -1.129,1.57 -3.829,1.129 -5.41,0.452 -1.345,-3.162 -1.57,-5.637 -2.699,-8.574 2.258,-5.179 9.7,-5.63 11.949,-0.656 M 483.38,218.751 c 1.57,9.029 -3.172,16.678 -2.27,25.917 -0.451,-0.215 -0.688,0.237 -1.129,0.452 -0.667,-2.011 -2.711,-0.215 -3.604,-1.57 -8.563,-5.873 -2.475,-16.683 -6.519,-23.68 -1.355,-6.313 2.71,-10.821 5.861,-14.65 7.672,0 4.509,9.25 7.661,13.531 M 713.428,114.523 c 11.939,7.443 14.402,22.331 23.644,31.801 3.151,7.905 -1.817,17.597 2.237,24.353 l 4.28,1.14 c -0.01,9.461 2.464,19.162 -0.01,28.177 l -1.592,1.129 c -2.032,9.692 4.724,22.541 -3.851,30.209 -3.84,13.297 -4.075,27.274 -1.602,41.021 -4.522,9.024 -9.256,18.932 -10.396,29.758 -1.355,3.378 -5.195,2.484 -8.122,3.378 -7.217,6.992 -13.768,16.437 -24.81,13.962 -4.743,8.337 -14.886,4.723 -23.223,4.949 -16.688,-2.722 -19.829,-20.765 -23.423,-34.071 l 0.667,0.463 0.452,-0.463 c -4.723,-6.529 -3.818,-16.231 -5.39,-24.348 -3.151,-2.258 -0.668,-7.217 -2.022,-9.249 -2.905,-34.492 6.372,-66.719 10.899,-99.638 7.218,-19.163 9.714,-40.353 21.674,-57.924 4.749,-4.733 11.505,-6.314 18.271,-4.723 8.102,6.314 14.878,13.305 22.317,20.076 m -16.259,25.246 c -1.807,1.334 0.441,2.926 1.57,3.378 -0.45,3.834 2.033,6.759 2.7,10.158 2.71,0.904 3.604,-0.914 5.422,-2.033 1.57,1.808 2.689,3.83 2.022,6.551 -2.947,10.131 3.582,19.824 2.679,29.756 4.733,1.797 1.796,11.488 8.11,9.692 0.237,-17.141 -1.108,-34.942 -8.982,-49.377 -4.958,-2.925 -6.078,-10.385 -13.521,-8.125 m -10.82,8.767 c -0.021,11.289 -7.47,19.388 -5.437,31.359 -7.229,7.639 -0.473,17.346 0.882,25.466 -3.173,3.604 -2.259,9.241 -3.173,13.974 -1.581,2.7 -4.507,5.175 -6.991,5.41 -2.485,9.924 -0.247,18.723 0.431,28.63 8.347,1.807 6.303,11.514 9.24,17.365 -5.195,9.692 4.485,15.779 8.1,23.911 6.528,2.475 2.484,-9.239 9.696,-6.981 10.605,-16.23 12.649,-35.846 13.563,-55.907 0.452,-9.024 -3.141,-18.043 -1.107,-26.38 -5.175,-11.272 -6.971,-23.89 -10.801,-35.867 -4.281,-7.207 -2.689,-20.06 -14.403,-20.98 m -144.53,1.045 c 1.129,4.733 -1.796,7.885 -1.581,12.392 -1.13,0.903 -2.938,0.225 -4.292,0.452 1.14,-5.638 -7.659,-6.551 -4.497,-12.403 2.26,-2.699 4.066,-5.185 7.218,-6.529 3.388,0.001 2.033,4.055 3.152,6.088 M 510.968,97.477 c 9.466,0.237 18.271,-4.275 28.639,-3.808 34.503,-1.098 80.04,-5.369 94.218,33.199 5.164,29.768 5.369,61.563 -7.055,88.149 -3.388,23.002 -23.25,38.997 -27.089,61.764 -0.688,1.57 -2.938,1.118 -3.829,0.441 -5.412,-4.976 -9.703,2.7 -14.215,4.958 -7.443,4.271 -8.133,14.641 -17.146,15.082 -4.065,0.45 -0.678,4.958 -3.388,6.528 0,4.508 0.677,9.252 -2.71,12.403 -5.862,-2.249 -1.119,-19.158 -10.133,-10.821 -9.708,4.948 -18.959,16.903 -30.898,9.671 -3.388,-1.131 -9.02,2.474 -10.826,-1.141 0.903,-1.571 0.451,-3.829 0.451,-5.852 0,-6.088 -11.939,-2.043 -5.4,-8.798 -0.677,-3.604 -8.798,-1.366 -5.41,-5.873 5.432,-23.435 -4.927,-48.027 -3.551,-72.586 -6.313,-3.162 -4.28,-12.181 -3.818,-18.269 2.925,-7.885 5.862,-18.49 1.592,-26.602 1.355,-7.224 0.688,-15.559 -5.4,-20.077 -1.119,-3.151 1.581,-6.087 1.591,-9.692 2.474,-11.267 -4.722,-20.517 -2.012,-31.79 3.394,-7.885 -7.659,-18.271 3.179,-22.315 8.334,0.229 19.155,-3.59 23.21,5.429 m 57.934,15.134 c -6.996,-0.441 -15.333,-1.807 -20.518,3.377 -3.162,6.304 -9.239,-4.066 -14.661,1.118 1.141,-4.743 -4.044,-2.936 -6.529,-3.387 -7.448,1.57 -1.812,10.143 -2.726,15.102 -4.508,7.674 0.452,16.903 -2.711,25.036 -2.054,13.978 7.863,22.765 8.09,35.609 -0.914,6.314 2.248,12.188 -2.722,16.909 -2.494,22.787 6.057,43.757 8.069,65.841 0.902,3.613 0.226,7.884 2.699,10.826 3.829,0.011 6.997,-1.798 10.376,-2.689 22.996,-4.502 36.996,-26.586 46.031,-45.963 7.002,-29.086 23.947,-65.589 4.344,-94.701 -8.787,-9.465 -17.801,-21.647 -29.742,-27.078 m 279.1,17.56 v 2.711 c -0.903,-0.011 -1.344,1.118 -2.032,1.57 -0.678,4.281 2.699,10.596 -1.808,12.627 -2.484,0.226 -5.41,0.894 -6.313,3.604 0.451,2.023 -0.903,3.142 -2.259,4.502 -1.129,-1.787 -2.475,-3.373 -2.71,-5.405 -9.005,-10.832 -14.404,-24.364 -24.327,-34.738 -10.811,1.787 -15.339,12.162 -18.942,21.175 -1.129,7.885 5.174,18.264 -3.172,23.665 -1.808,0.692 -5.185,-1.356 -5.417,1.596 -0.01,8.109 -2.042,15.092 -4.527,22.309 1.334,21.637 -0.936,45.989 6.035,66.056 3.841,5.863 4.056,13.08 9.24,18.265 0.894,5.868 6.534,8.353 8.567,13.536 12.618,-0.215 24.568,-5.389 36.75,-8.089 13.521,-1.108 25.481,-6.745 34.049,-18.237 6.993,-4.959 9.251,-12.617 14.672,-18.471 -1.807,-9.477 -12.628,-2.042 -19.384,-4.302 -9.019,-4.522 -11.74,13.296 -17.818,1.57 -8.12,-3.162 -16.005,1.12 -24.347,0.431 -3.152,2.927 -0.462,10.585 -6.551,9.907 -3.377,-2.474 0.236,-8.788 -5.399,-9.239 -3.151,0 -5.852,-1.813 -8.109,-3.846 -0.904,-2.022 -2.938,-3.377 -2.26,-5.862 3.614,-4.056 5.646,-11.262 11.52,-11.93 12.833,-0.677 23.443,1.13 35.62,0.463 l 3.151,-1.57 c 11.279,0 23.229,0.247 34.717,-2.228 4.292,3.151 10.821,0.688 15.785,2.259 2.485,1.129 4.508,3.378 7.443,3.162 -0.451,6.089 1.335,14.431 -1.592,20.066 -5.2,2.699 -12.858,-5.862 -15.796,3.378 -3.829,11.714 -6.991,23.659 -11.734,35.157 -0.688,4.293 1.787,12.618 -4.527,13.984 -3.168,11.719 -21.874,7.637 -20.98,21.615 6.078,1.365 -0.678,6.539 1.57,9.702 -0.452,1.796 -1.355,3.829 -3.162,4.271 -1.344,-4.496 -11.047,-3.829 -7.197,-9.681 1.119,-0.237 2.022,-1.355 2.7,-2.033 -1.344,-2.033 -1.119,-5.41 -4.281,-7.218 -8.562,2.701 -16.914,5.4 -25.928,6.52 -11.272,-0.689 -24.358,-0.479 -35.168,-4.318 -9.024,-2.701 -11.273,-11.51 -17.351,-17.813 0.011,-3.604 -2.238,-6.767 -5.4,-8.8 -2.937,0.679 -5.868,-0.225 -6.997,-3.166 -0.441,-4.056 3.619,-9.016 0.468,-13.521 -2.48,-7.896 0.688,-18.028 -2.679,-25.487 -2.249,-20.052 0.021,-41.021 0.031,-61.544 3.84,-11.714 6.775,-23.659 13.1,-34.253 10.833,-16.448 24.381,-37.191 45.561,-39.881 3.855,-1.129 8.125,-2.237 12.417,-1.119 11.712,4.971 21.167,17.152 24.771,28.65" /></g>
</svg>
