<?xml version="1.0" encoding="UTF-8" standalone="no"?>
<!-- Created with Inkscape (http://www.inkscape.org/) -->

<svg
   xmlns:dc="http://purl.org/dc/elements/1.1/"
   xmlns:cc="http://creativecommons.org/ns#"
   xmlns:rdf="http://www.w3.org/1999/02/22-rdf-syntax-ns#"
   xmlns:svg="http://www.w3.org/2000/svg"
   xmlns="http://www.w3.org/2000/svg"
   xmlns:sodipodi="http://sodipodi.sourceforge.net/DTD/sodipodi-0.dtd"
   xmlns:inkscape="http://www.inkscape.org/namespaces/inkscape"
   width="264.58334mm"
   height="157.17274mm"
   viewBox="0 0 264.58334 157.17274"
   version="1.1"
   id="svg8"
   inkscape:version="0.92.4 (5da689c313, 2019-01-14)"
   sodipodi:docname="Love Life logo.svg">
  <defs
     id="defs2" />
  <sodipodi:namedview
     id="base"
     pagecolor="#ffffff"
     bordercolor="#666666"
     borderopacity="1.0"
     inkscape:pageopacity="0.0"
     inkscape:pageshadow="2"
     inkscape:zoom="0.49497475"
     inkscape:cx="537.37734"
     inkscape:cy="191.65871"
     inkscape:document-units="mm"
     inkscape:current-layer="layer1"
     showgrid="false"
     inkscape:object-nodes="false"
     fit-margin-top="0"
     fit-margin-left="0"
     fit-margin-right="0"
     fit-margin-bottom="0"
     inkscape:window-width="1920"
     inkscape:window-height="1017"
     inkscape:window-x="-8"
     inkscape:window-y="-8"
     inkscape:window-maximized="1" />
  <metadata
     id="metadata5">
    <rdf:RDF>
      <cc:Work
         rdf:about="">
        <dc:format>image/svg+xml</dc:format>
        <dc:type
           rdf:resource="http://purl.org/dc/dcmitype/StillImage" />
        <dc:title></dc:title>
      </cc:Work>
    </rdf:RDF>
  </metadata>
  <g
     inkscape:label="Layer 1"
     inkscape:groupmode="layer"
     id="layer1"
     transform="translate(-23.605797,68.715434)">
    <g
       id="g4573"
       transform="matrix(2.9492764,0,0,2.9492764,-46.014223,-172.42775)">
      <g
         id="g4545"
         style="font-style:normal;font-variant:normal;font-weight:normal;font-stretch:normal;font-size:37.68886566px;line-height:1.25;font-family:'Times New Roman';-inkscape-font-specification:'Times New Roman, ';text-align:center;letter-spacing:0px;word-spacing:0px;text-anchor:middle;fill:#ff0000;fill-opacity:1;stroke:#000000;stroke-width:0.5;stroke-opacity:1">
        <path
           id="path4524"
           style="fill:#ff0000;stroke:#000000;stroke-width:0.5;stroke-opacity:1"
           d="m 44.706131,54.038942 0.607291,0.12882 -2.134721,6.772218 H 23.855797 v -0.680903 h 0.938541 q 1.582638,0 2.26354,-1.030555 0.386458,-0.588888 0.386458,-2.723609 V 40.402492 q 0,-2.337151 -0.515277,-2.92604 -0.717708,-0.809721 -2.134721,-0.809721 h -0.938541 v -0.680903 h 11.299298 v 0.680903 q -1.987498,-0.0184 -2.79722,0.368055 -0.791319,0.386458 -1.085763,0.975347 -0.294445,0.588888 -0.294445,2.815623 v 15.679157 q 0,1.527429 0.294445,2.097915 0.220833,0.386458 0.680902,0.570486 0.460069,0.184028 2.870832,0.184028 h 1.821873 q 2.870832,0 4.030206,-0.423264 1.159375,-0.423264 2.116318,-1.490624 0.956944,-1.085763 1.913888,-3.404512 z"
           inkscape:connector-curvature="0" />
        <path
           id="path4526"
           style="fill:#ff0000;stroke:#000000;stroke-width:0.5;stroke-opacity:1"
           d="m 57.653429,35.415343 q 4.85833,0 8.410064,3.698956 3.570136,3.680553 3.570136,9.201383 0,5.686455 -3.588539,9.440619 -3.588539,3.754164 -8.686106,3.754164 -5.152774,0 -8.667703,-3.66215 -3.496525,-3.662151 -3.496525,-9.477425 0,-5.944093 4.048608,-9.698258 3.514929,-3.257289 8.410065,-3.257289 z m -0.349653,1.343401 q -3.349304,0 -5.373608,2.484374 -2.521179,3.091665 -2.521179,9.054161 0,6.109718 2.613193,9.403814 2.005902,2.502776 5.299997,2.502776 3.514928,0 5.796871,-2.742012 2.300346,-2.742013 2.300346,-8.649301 0,-6.404162 -2.521179,-9.551035 -2.024304,-2.502777 -5.594441,-2.502777 z"
           inkscape:connector-curvature="0" />
        <path
           id="path4528"
           style="fill:#ff0000;stroke:#000000;stroke-width:0.5;stroke-opacity:1"
           d="m 90.914466,35.985828 v 0.680903 q -1.324999,0.239236 -2.005901,0.846527 -0.975347,0.901735 -1.72986,2.760415 L 78.474196,61.510465 H 77.793294 L 68.444688,39.997631 q -0.717707,-1.656249 -1.012152,-2.024304 -0.460069,-0.570486 -1.140971,-0.883333 -0.6625,-0.33125 -1.803471,-0.423263 v -0.680903 h 10.195132 v 0.680903 q -1.72986,0.165625 -2.245137,0.588888 -0.515278,0.423264 -0.515278,1.085763 0,0.920139 0.846528,2.870832 l 6.348954,14.630199 5.888885,-14.446171 q 0.86493,-2.134721 0.86493,-2.962846 0,-0.53368 -0.53368,-1.012152 -0.53368,-0.496875 -1.803471,-0.699305 -0.09201,-0.0184 -0.312847,-0.05521 v -0.680903 z"
           inkscape:connector-curvature="0" />
        <path
           id="path4530"
           style="fill:#ff0000;stroke:#000000;stroke-width:0.5;stroke-opacity:1"
           d="m 98.68611,37.347633 v 9.863883 h 5.48402 q 2.13472,0 2.85243,-0.644097 0.95694,-0.846527 1.06736,-2.981248 h 0.6809 v 8.686106 h -0.6809 q -0.25764,-1.821874 -0.51528,-2.337152 -0.33125,-0.644097 -1.08576,-1.012152 -0.75451,-0.368055 -2.31875,-0.368055 h -5.48402 v 8.226036 q 0,1.656249 0.14722,2.024305 0.14722,0.349652 0.51528,0.570485 0.36805,0.202431 1.39861,0.202431 h 4.23263 q 2.11632,0 3.07327,-0.294444 0.95694,-0.294445 1.84027,-1.159375 1.14097,-1.140971 2.33715,-3.441317 h 0.73611 l -2.15312,6.256941 H 91.58264 v -0.680903 h 0.883332 q 0.883338,0 1.674648,-0.423263 0.58889,-0.294445 0.79132,-0.883333 0.22084,-0.588889 0.22084,-2.410763 V 40.328881 q 0,-2.373957 -0.47848,-2.92604 -0.6625,-0.73611 -2.208328,-0.73611 H 91.58264 v -0.680903 h 19.23089 l 0.27604,5.465622 h -0.71771 q -0.38645,-1.969096 -0.86493,-2.705207 -0.46006,-0.73611 -1.3802,-1.122569 -0.73611,-0.276041 -2.59479,-0.276041 z"
           inkscape:connector-curvature="0" />
      </g>
      <g
         transform="translate(-3.2127976,-19.84375)"
         id="g4551"
         style="font-style:normal;font-variant:normal;font-weight:normal;font-stretch:normal;font-size:37.68886566px;line-height:1.25;font-family:'Times New Roman';-inkscape-font-specification:'Times New Roman, ';text-align:center;letter-spacing:0px;word-spacing:0px;text-anchor:middle;fill:#ff0000;fill-opacity:1;stroke:#000000;stroke-width:0.5;stroke-opacity:1">
        <path
           id="path4532"
           style="fill:#ff0000;stroke:#000000;stroke-width:0.5;stroke-opacity:1"
           d="m 55.627438,101.15002 0.607292,0.12882 -2.134721,6.77222 H 34.777104 v -0.6809 h 0.938541 q 1.582638,0 2.26354,-1.03056 0.386459,-0.58888 0.386459,-2.72361 V 87.513574 q 0,-2.337151 -0.515278,-2.92604 -0.717708,-0.809721 -2.134721,-0.809721 H 34.777104 V 83.09691 h 11.299299 v 0.680903 q -1.987499,-0.0184 -2.797221,0.368055 -0.791319,0.386458 -1.085763,0.975347 -0.294444,0.588888 -0.294444,2.815623 v 15.679152 q 0,1.52743 0.294444,2.09792 0.220833,0.38646 0.680902,0.57049 0.460069,0.18402 2.870832,0.18402 h 1.821874 q 2.870831,0 4.030206,-0.42326 1.159374,-0.42326 2.116318,-1.49062 0.956944,-1.08577 1.913887,-3.40452 z"
           inkscape:connector-curvature="0" />
        <path
           id="path4534"
           style="fill:#ff0000;stroke:#000000;stroke-width:0.5;stroke-opacity:1"
           d="m 65.953076,107.37016 v 0.6809 H 55.261069 v -0.6809 h 0.883333 q 1.545832,0 2.245137,-0.90174 0.441667,-0.58888 0.441667,-2.83402 V 87.513574 q 0,-1.895485 -0.239236,-2.502776 -0.184028,-0.460069 -0.754514,-0.791319 -0.809722,-0.441666 -1.693054,-0.441666 H 55.261069 V 83.09691 h 10.692007 v 0.680903 h -0.901735 q -1.52743,0 -2.226735,0.901735 -0.460069,0.588889 -0.460069,2.834026 V 103.6344 q 0,1.89548 0.239236,2.50277 0.184027,0.46007 0.772916,0.79132 0.791319,0.44167 1.674652,0.44167 z"
           inkscape:connector-curvature="0" />
        <path
           id="path4536"
           style="fill:#ff0000;stroke:#000000;stroke-width:0.5;stroke-opacity:1"
           d="m 74.620777,84.458715 v 9.808675 h 4.545483 q 1.564235,0 2.281943,-0.680903 0.736111,-0.699305 0.975347,-2.742012 h 0.680902 v 8.44687 H 82.42355 q -0.0184,-1.453819 -0.386458,-2.134721 -0.349653,-0.680902 -0.99375,-1.012152 -0.625694,-0.349653 -1.877082,-0.349653 h -4.545483 v 7.839581 q 0,1.89548 0.239236,2.50277 0.184028,0.46007 0.772916,0.79132 0.809722,0.44167 1.693055,0.44167 h 0.901735 v 0.6809 h -10.71041 v -0.6809 h 0.883333 q 1.545832,0 2.245137,-0.90174 0.441667,-0.58888 0.441667,-2.83402 V 87.513574 q 0,-1.895485 -0.239236,-2.502776 -0.184028,-0.460069 -0.754514,-0.791319 -0.791319,-0.441666 -1.693054,-0.441666 H 67.517309 V 83.09691 H 86.0857 l 0.239236,5.484025 H 85.68084 Q 85.202368,86.832672 84.558271,86.02295 83.932577,85.194826 82.994036,84.82677 82.073897,84.458715 80.123204,84.458715 Z"
           inkscape:connector-curvature="0" />
        <path
           id="path4538"
           style="fill:#ff0000;stroke:#000000;stroke-width:0.5;stroke-opacity:1"
           d="m 93.990976,84.458715 v 9.863883 h 5.484022 q 2.134722,0 2.852432,-0.644097 0.95695,-0.846527 1.06736,-2.981248 h 0.6809 v 8.686106 h -0.6809 q -0.25764,-1.821874 -0.51528,-2.337152 -0.33125,-0.644097 -1.08576,-1.012152 Q 101.03924,95.666 99.474998,95.666 h -5.484022 v 8.22604 q 0,1.65625 0.147223,2.0243 0.147222,0.34965 0.515277,0.57049 0.368055,0.20243 1.39861,0.20243 h 4.232634 q 2.11632,0 3.07327,-0.29445 0.95694,-0.29444 1.84027,-1.15937 1.14097,-1.14097 2.33715,-3.44132 h 0.73612 l -2.15313,6.25694 H 86.887509 v -0.6809 h 0.883332 q 0.883333,0 1.674652,-0.42326 0.588889,-0.29445 0.791319,-0.88334 0.220833,-0.58889 0.220833,-2.41076 V 87.439963 q 0,-2.373957 -0.478472,-2.92604 -0.662499,-0.73611 -2.208332,-0.73611 H 86.887509 V 83.09691 H 106.1184 l 0.27604,5.465622 h -0.7177 q -0.38646,-1.969096 -0.86493,-2.705207 -0.46007,-0.73611 -1.38021,-1.122568 -0.73611,-0.276042 -2.59479,-0.276042 z"
           inkscape:connector-curvature="0" />
      </g>
    </g>
  </g>
</svg>
