<?xml version="1.0" encoding="UTF-8" standalone="no"?>
<svg
   xmlns:dc="http://purl.org/dc/elements/1.1/"
   xmlns:cc="http://creativecommons.org/ns#"
   xmlns:rdf="http://www.w3.org/1999/02/22-rdf-syntax-ns#"
   xmlns:svg="http://www.w3.org/2000/svg"
   xmlns="http://www.w3.org/2000/svg"
   xmlns:sodipodi="http://sodipodi.sourceforge.net/DTD/sodipodi-0.dtd"
   xmlns:inkscape="http://www.inkscape.org/namespaces/inkscape"
   width="338.66669mm"
   height="127.49591mm"
   viewBox="0 0 338.66669 127.49591"
   version="1.1"
   id="svg971"
   inkscape:version="1.0.1 (3bc2e813f5, 2020-09-07)"
   sodipodi:docname="Bill_Nye_Saves_the_World_(2017).svg">
  <defs
     id="defs965" />
  <sodipodi:namedview
     id="base"
     pagecolor="#ffffff"
     bordercolor="#666666"
     borderopacity="1.0"
     inkscape:pageopacity="0.0"
     inkscape:pageshadow="2"
     inkscape:zoom="0.53984374"
     inkscape:cx="640.00001"
     inkscape:cy="240.93715"
     inkscape:document-units="mm"
     inkscape:current-layer="layer1"
     inkscape:document-rotation="0"
     showgrid="false"
     inkscape:window-width="1366"
     inkscape:window-height="706"
     inkscape:window-x="-8"
     inkscape:window-y="-8"
     inkscape:window-maximized="1"
     showguides="true"
     inkscape:guide-bbox="true" />
  <metadata
     id="metadata968">
    <rdf:RDF>
      <cc:Work
         rdf:about="">
        <dc:format>image/svg+xml</dc:format>
        <dc:type
           rdf:resource="http://purl.org/dc/dcmitype/StillImage" />
        <dc:title />
      </cc:Work>
    </rdf:RDF>
  </metadata>
  <g
     inkscape:label="Layer 1"
     inkscape:groupmode="layer"
     id="layer1"
     transform="translate(-1.4390681,-219.88615)">
    <g
       id="g1293">
      <path
         d="m 13.838817,327.00928 c -2.307159,-0.17412 -3.569567,-0.26102 -3.569567,-2.87305 0,-1.82832 0.391781,-2.786 5.093164,-2.786 3.482505,0 4.875507,0 4.875507,3.35191 h 8.358013 v -1.34947 c 0,-9.01099 -6.094385,-9.1416 -13.23352,-9.1416 -8.5321385,0 -13.7994278,0.60946 -13.7994278,9.9687 0,9.35921 4.7013822,9.3157 12.7546758,9.88161 l 1.915378,0.13067 c 4.091944,0.26103 4.570788,0.21758 4.570788,3.04722 0,2.74244 -1.349471,3.00363 -5.441414,3.00363 -4.266069,0 -5.4849463,-0.34825 -5.4849463,-3.74367 H 1.5194549 c 0,10.70871 5.5284772,10.88283 13.8429591,10.88283 14.365335,0 14.147679,-5.31084 14.147679,-10.70871 0,-7.4874 -2.394224,-8.70626 -12.058176,-9.40278 z"
         style="font-style:normal;font-variant:normal;font-weight:bold;font-stretch:normal;font-size:13.3252px;line-height:1.25;font-family:'Eurostile LT Std';-inkscape-font-specification:'Eurostile LT Std Bold';text-decoration:none;text-decoration-line:none;text-decoration-color:#000000;letter-spacing:-0.529167px;word-spacing:0px;fill:#002b63;fill-opacity:1;stroke-width:1.63242"
         id="path1021" />
      <path
         d="m 52.151934,341.50524 1.697722,5.61554 h 8.880389 L 52.804904,314.47229 H 39.571386 l -9.794543,32.64849 h 9.054509 l 1.610661,-5.61554 z m -1.741253,-6.35558 h -8.096824 l 3.961349,-14.14767 h 0.08706 z"
         style="font-style:normal;font-variant:normal;font-weight:bold;font-stretch:normal;font-size:13.3252px;line-height:1.25;font-family:'Eurostile LT Std';-inkscape-font-specification:'Eurostile LT Std Bold';text-decoration:none;text-decoration-line:none;text-decoration-color:#000000;letter-spacing:-0.529167px;word-spacing:0px;fill:#002b63;fill-opacity:1;stroke-width:1.63242"
         id="path1023" />
      <path
         d="m 74.023536,339.63337 h -0.261184 l -7.052079,-25.16108 h -8.836855 l 9.228638,32.64849 h 13.581773 l 9.533355,-32.64849 h -9.010981 z"
         style="font-style:normal;font-variant:normal;font-weight:bold;font-stretch:normal;font-size:13.3252px;line-height:1.25;font-family:'Eurostile LT Std';-inkscape-font-specification:'Eurostile LT Std Bold';text-decoration:none;text-decoration-line:none;text-decoration-color:#000000;letter-spacing:-0.529167px;word-spacing:0px;fill:#002b63;fill-opacity:1;stroke-width:1.63242"
         id="path1025" />
      <path
         d="m 99.889253,321.61142 h 14.844177 v -7.13913 H 91.18299 v 32.64849 h 23.85516 v -7.13916 H 99.889253 v -6.35558 H 113.81927 V 327.5752 H 99.889253 Z"
         style="font-style:normal;font-variant:normal;font-weight:bold;font-stretch:normal;font-size:13.3252px;line-height:1.25;font-family:'Eurostile LT Std';-inkscape-font-specification:'Eurostile LT Std Bold';text-decoration:none;text-decoration-line:none;text-decoration-color:#000000;letter-spacing:-0.529167px;word-spacing:0px;fill:#002b63;fill-opacity:1;stroke-width:1.63242"
         id="path1027" />
      <path
         d="m 130.8902,327.00928 c -2.30715,-0.17412 -3.56956,-0.26102 -3.56956,-2.87305 0,-1.82832 0.39178,-2.786 5.09316,-2.786 3.48251,0 4.87551,0 4.87551,3.35191 h 8.35801 v -1.34947 c 0,-9.01099 -6.09438,-9.1416 -13.23352,-9.1416 -8.53214,0 -13.79943,0.60946 -13.79943,9.9687 0,9.35921 4.70138,9.3157 12.75468,9.88161 l 1.91538,0.13067 c 4.09194,0.26103 4.57078,0.21758 4.57078,3.04722 0,2.74244 -1.34947,3.00363 -5.44141,3.00363 -4.26607,0 -5.48495,-0.34825 -5.48495,-3.74367 h -8.35801 c 0,10.70871 5.52848,10.88283 13.84296,10.88283 14.36533,0 14.14768,-5.31084 14.14768,-10.70871 0,-7.4874 -2.39422,-8.70626 -12.05818,-9.40278 z"
         style="font-style:normal;font-variant:normal;font-weight:bold;font-stretch:normal;font-size:13.3252px;line-height:1.25;font-family:'Eurostile LT Std';-inkscape-font-specification:'Eurostile LT Std Bold';text-decoration:none;text-decoration-line:none;text-decoration-color:#000000;letter-spacing:-0.529167px;word-spacing:0px;fill:#002b63;fill-opacity:1;stroke-width:1.63242"
         id="path1029" />
      <path
         d="m 207.83011,339.63337 h -0.30473 l -5.83318,-25.16108 h -9.05452 l -6.13792,25.16108 h -0.30473 l -4.70138,-25.16108 h -8.83686 l 7.05208,32.64849 h 12.44995 l 4.74492,-20.45974 h 0.34825 l 4.44019,20.45974 h 12.58055 l 7.2262,-32.64849 h -8.74979 z"
         style="font-style:normal;font-variant:normal;font-weight:bold;font-stretch:normal;font-size:13.3252px;line-height:1.25;font-family:'Eurostile LT Std';-inkscape-font-specification:'Eurostile LT Std Bold';text-decoration:none;text-decoration-line:none;text-decoration-color:#000000;letter-spacing:-0.529167px;word-spacing:0px;fill:#002b63;fill-opacity:1;stroke-width:1.63242"
         id="path1031" />
      <path
         d="m 236.78474,347.38196 c 8.83685,0 15.10536,-1.91538 15.10536,-11.97111 v -9.22867 c 0,-10.05573 -6.26851,-11.97111 -15.10536,-11.97111 -8.83686,0 -15.10537,1.91538 -15.10537,11.97111 v 9.22867 c 0,10.05573 6.26851,11.97111 15.10537,11.97111 z m 0,-7.57447 c -4.52726,0 -6.00733,-0.47882 -6.13792,-5.35435 v -7.3568 c 0.13061,-4.83195 1.61066,-5.3108 6.13792,-5.3108 4.52725,0 6.13791,0.47885 6.13791,5.3108 v 7.3568 c 0,4.87553 -1.61066,5.35435 -6.13791,5.35435 z"
         style="font-style:normal;font-variant:normal;font-weight:bold;font-stretch:normal;font-size:13.3252px;line-height:1.25;font-family:'Eurostile LT Std';-inkscape-font-specification:'Eurostile LT Std Bold';text-decoration:none;text-decoration-line:none;text-decoration-color:#000000;letter-spacing:-0.529167px;word-spacing:0px;fill:#002b63;fill-opacity:1;stroke-width:1.63242"
         id="path1033" />
      <path
         d="m 263.39004,330.88359 v -8.83687 h 6.74736 c 2.87306,0 3.6131,0.8271 3.6131,3.7437 0,3.70016 0.1306,5.09317 -3.6131,5.09317 z m -8.70626,16.23719 h 8.70626 v -8.66275 h 6.74736 c 2.61187,0 3.65663,1.6542 3.56957,4.09194 v 4.57081 h 8.70626 v -6.57325 c 0,-3.70015 -2.30716,-5.65908 -5.87673,-5.78966 v -0.34824 c 6.18145,-1.43653 6.18145,-4.61432 6.18145,-10.05573 0,-8.14038 -3.70017,-9.75104 -11.23108,-9.88161 h -16.80309 z"
         style="font-style:normal;font-variant:normal;font-weight:bold;font-stretch:normal;font-size:13.3252px;line-height:1.25;font-family:'Eurostile LT Std';-inkscape-font-specification:'Eurostile LT Std Bold';text-decoration:none;text-decoration-line:none;text-decoration-color:#000000;letter-spacing:-0.529167px;word-spacing:0px;fill:#002b63;fill-opacity:1;stroke-width:1.63242"
         id="path1035" />
      <path
         d="m 295.04261,314.47229 h -8.70627 v 32.64849 h 22.33157 v -7.57447 h -13.6253 z"
         style="font-style:normal;font-variant:normal;font-weight:bold;font-stretch:normal;font-size:13.3252px;line-height:1.25;font-family:'Eurostile LT Std';-inkscape-font-specification:'Eurostile LT Std Bold';text-decoration:none;text-decoration-line:none;text-decoration-color:#000000;letter-spacing:-0.529167px;word-spacing:0px;fill:#002b63;fill-opacity:1;stroke-width:1.63242"
         id="path1037" />
      <path
         d="m 310.41719,347.12078 h 17.71737 c 9.09809,0 11.97118,-4.22256 11.97118,-13.14646 v -6.83443 c 0,-9.27218 -4.04844,-12.6676 -13.14656,-12.6676 h -16.54199 z m 8.70626,-25.07406 h 7.6181 c 3.04721,0 4.39667,0.87062 4.39667,5.09317 v 6.83443 c 0,3.43897 -1.17534,5.57199 -4.39667,5.57199 h -7.6181 z"
         style="font-style:normal;font-variant:normal;font-weight:bold;font-stretch:normal;font-size:13.3252px;line-height:1.25;font-family:'Eurostile LT Std';-inkscape-font-specification:'Eurostile LT Std Bold';text-decoration:none;text-decoration-line:none;text-decoration-color:#000000;letter-spacing:-0.529167px;word-spacing:0px;fill:#002b63;fill-opacity:1;stroke-width:1.63242"
         id="path1039" />
      <path
         d="m 150.876,336.99912 h 3.56458 v 2.75046 h 14.24734 v 4.63176 h -14.24734 v 2.73944 H 150.876 Z"
         style="font-style:normal;font-variant:normal;font-weight:bold;font-stretch:normal;font-size:6.89709px;line-height:1.25;font-family:Impact;-inkscape-font-specification:'Impact Bold';text-decoration:none;text-decoration-line:none;text-decoration-color:#000000;letter-spacing:0.131185px;word-spacing:0px;fill:#002b63;fill-opacity:1;stroke-width:0.844939"
         id="path1066" />
      <path
         d="m 150.876,324.85353 h 17.81192 v 4.63176 h -7.48123 v 1.38622 h 7.48123 v 4.63176 H 150.876 v -4.63176 h 6.37004 v -1.38622 H 150.876 Z"
         style="font-style:normal;font-variant:normal;font-weight:bold;font-stretch:normal;font-size:6.89709px;line-height:1.25;font-family:Impact;-inkscape-font-specification:'Impact Bold';text-decoration:none;text-decoration-line:none;text-decoration-color:#000000;letter-spacing:0.131185px;word-spacing:0px;fill:#002b63;fill-opacity:1;stroke-width:0.844939"
         id="path1068" />
      <path
         d="m 150.876,322.50359 v -7.72327 h 3.56458 v 3.09151 h 3.37755 v -2.89347 h 3.38856 v 2.89347 h 3.91664 v -3.39954 h 3.56459 v 8.0313 z"
         style="font-style:normal;font-variant:normal;font-weight:bold;font-stretch:normal;font-size:6.89709px;line-height:1.25;font-family:Impact;-inkscape-font-specification:'Impact Bold';text-decoration:none;text-decoration-line:none;text-decoration-color:#000000;letter-spacing:0.131185px;word-spacing:0px;fill:#002b63;fill-opacity:1;stroke-width:0.844939"
         id="path1070" />
      <path
         d="M 1.4390681,219.88615 H 24.598032 q 10.972937,0 16.597259,1.70934 5.679459,1.70935 9.153304,6.94769 3.473845,5.18321 3.473845,16.76269 0,7.82993 -2.48132,10.91779 -2.426175,3.08785 -9.649567,4.74208 8.050497,1.81963 10.917798,6.06544 2.8673,4.19068 2.8673,12.90285 v 8.27106 q 0,9.04301 -2.095336,13.39911 -2.040195,4.3561 -6.561706,5.95516 -4.521511,1.59908 -18.527171,1.59908 H 1.4390681 Z m 23.2141049,15.27389 v 19.85054 q 1.48879,-0.0552 2.315896,-0.0552 3.418703,0 4.356091,-1.65423 0.937387,-1.70934 0.937387,-9.64956 0,-4.19068 -0.771968,-5.84487 -0.771964,-1.70935 -2.040191,-2.15047 -1.21309,-0.44112 -4.797215,-0.49626 z m 0,33.74592 v 24.9786 q 4.907494,-0.16531 6.230865,-1.54395 1.378509,-1.37851 1.378509,-6.78225 v -8.3262 q 0,-5.73462 -1.213089,-6.94769 -1.21309,-1.21311 -6.396285,-1.37851 z"
         style="font-style:normal;font-variant:normal;font-weight:bold;font-stretch:normal;font-size:34.5678px;line-height:1.25;font-family:Impact;-inkscape-font-specification:'Impact Bold';text-decoration:none;text-decoration-line:none;text-decoration-color:#000000;letter-spacing:-0.672042px;word-spacing:0px;fill:#e8823a;fill-opacity:1;stroke-width:4.23477"
         id="path995" />
      <path
         d="m 83.884115,219.88615 v 11.63463 H 60.945713 v -11.63463 z m 0,16.10099 v 73.1713 H 60.945713 v -73.1713 z"
         style="font-style:normal;font-variant:normal;font-weight:bold;font-stretch:normal;font-size:34.5678px;line-height:1.25;font-family:Impact;-inkscape-font-specification:'Impact Bold';text-decoration:none;text-decoration-line:none;text-decoration-color:#000000;letter-spacing:-0.672042px;word-spacing:0px;fill:#e8823a;fill-opacity:1;stroke-width:4.23477"
         id="path997" />
      <path
         d="m 113.5598,219.88615 v 71.40679 h 14.11594 v 17.8655 H 90.345699 v -89.27229 z"
         style="font-style:normal;font-variant:normal;font-weight:bold;font-stretch:normal;font-size:34.5678px;line-height:1.25;font-family:Impact;-inkscape-font-specification:'Impact Bold';text-decoration:none;text-decoration-line:none;text-decoration-color:#000000;letter-spacing:-0.672042px;word-spacing:0px;fill:#e8823a;fill-opacity:1;stroke-width:4.23477"
         id="path999" />
      <path
         d="m 154.31872,219.88615 v 71.40679 h 14.11594 v 17.8655 h -37.33005 v -89.27229 z"
         style="font-style:normal;font-variant:normal;font-weight:bold;font-stretch:normal;font-size:34.5678px;line-height:1.25;font-family:Impact;-inkscape-font-specification:'Impact Bold';text-decoration:none;text-decoration-line:none;text-decoration-color:#000000;letter-spacing:-0.672042px;word-spacing:0px;fill:#e8823a;fill-opacity:1;stroke-width:4.23477"
         id="path1001" />
      <path
         d="m 241.40571,219.88615 v 89.27229 H 221.0589 l -12.07574,-40.58335 v 40.58335 h -19.40942 v -89.27229 h 19.40942 l 13.01313,40.19734 v -40.19734 z"
         style="font-style:normal;font-variant:normal;font-weight:bold;font-stretch:normal;font-size:34.5678px;line-height:1.25;font-family:Impact;-inkscape-font-specification:'Impact Bold';text-decoration:none;text-decoration-line:none;text-decoration-color:#000000;letter-spacing:-0.672042px;word-spacing:0px;fill:#e8823a;fill-opacity:1;stroke-width:4.23477"
         id="path1003" />
      <path
         d="m 297.9899,219.88615 -16.9281,56.96003 v 32.31226 H 259.55705 V 276.84618 L 243.2355,219.88615 h 21.33933 q 5.01777,26.08139 5.62432,35.12443 1.92991,-14.28136 6.45142,-35.12443 z"
         style="font-style:normal;font-variant:normal;font-weight:bold;font-stretch:normal;font-size:34.5678px;line-height:1.25;font-family:Impact;-inkscape-font-specification:'Impact Bold';text-decoration:none;text-decoration-line:none;text-decoration-color:#000000;letter-spacing:-0.672042px;word-spacing:0px;fill:#e8823a;fill-opacity:1;stroke-width:4.23477"
         id="path1005" />
      <path
         d="m 299.76457,219.88615 h 38.70856 v 17.86548 h -15.49446 v 16.92812 h 14.50193 v 16.98323 h -14.50193 v 19.62996 h 17.03837 v 17.8655 h -40.25247 z"
         style="font-style:normal;font-variant:normal;font-weight:bold;font-stretch:normal;font-size:34.5678px;line-height:1.25;font-family:Impact;-inkscape-font-specification:'Impact Bold';text-decoration:none;text-decoration-line:none;text-decoration-color:#000000;letter-spacing:-0.672042px;word-spacing:0px;fill:#e8823a;fill-opacity:1;stroke-width:4.23477"
         id="path1007" />
    </g>
  </g>
</svg>
