<?xml version="1.0" encoding="UTF-8" standalone="no"?>
<svg
   xmlns:dc="http://purl.org/dc/elements/1.1/"
   xmlns:cc="http://creativecommons.org/ns#"
   xmlns:rdf="http://www.w3.org/1999/02/22-rdf-syntax-ns#"
   xmlns:svg="http://www.w3.org/2000/svg"
   xmlns="http://www.w3.org/2000/svg"
   xmlns:sodipodi="http://sodipodi.sourceforge.net/DTD/sodipodi-0.dtd"
   xmlns:inkscape="http://www.inkscape.org/namespaces/inkscape"
   viewBox="0 0 200 748.13296"
   height="47.250504"
   version="1.1"
   id="svg88"
   sodipodi:docname="A.svg"
   width="200"
   inkscape:version="0.92.4 (5da689c313, 2019-01-14)">
  <metadata
     id="metadata92">
    <rdf:RDF>
      <cc:Work
         rdf:about="">
        <dc:format>image/svg+xml</dc:format>
        <dc:type
           rdf:resource="http://purl.org/dc/dcmitype/StillImage" />
        <dc:title></dc:title>
      </cc:Work>
    </rdf:RDF>
  </metadata>
  <sodipodi:namedview
     pagecolor="#ffffff"
     bordercolor="#111111"
     borderopacity="1"
     objecttolerance="10"
     gridtolerance="10"
     guidetolerance="10"
     inkscape:pageopacity="0"
     inkscape:pageshadow="2"
     inkscape:window-width="1920"
     inkscape:window-height="1017"
     id="namedview90"
     showgrid="false"
     fit-margin-top="0"
     fit-margin-left="0"
     fit-margin-right="0"
     fit-margin-bottom="0"
     inkscape:zoom="2.8284271"
     inkscape:cx="133.37173"
     inkscape:cy="46.001584"
     inkscape:window-x="1912"
     inkscape:window-y="-8"
     inkscape:window-maximized="1"
     inkscape:current-layer="svg88"
     showguides="true"
     inkscape:guide-bbox="true">
    <inkscape:grid
       type="xygrid"
       id="grid158"
       originx="744.73658"
       originy="-11004.167" />
    <sodipodi:guide
       position="463.73659,229.84847"
       orientation="0,1"
       id="guide209"
       inkscape:locked="false" />
  </sodipodi:namedview>
  <defs
     id="defs82" />
  <rect
     style="opacity:1;fill:#e6e6e6;fill-opacity:1;stroke:none;stroke-width:825.52606201;stroke-linecap:square;stroke-linejoin:round;stroke-miterlimit:4;stroke-dasharray:none;stroke-opacity:1"
     id="rect171"
     width="3166.6665"
     height="748.13293"
     x="-1483.3333"
     y="0"
     rx="374.0665"
     ry="374.06647" />
  <g
     id="g187"
     transform="matrix(48.751417,0,0,48.751417,3581.4744,-11216.29)"
     style="fill:#0068ae;fill-opacity:1">
    <path
       id="path185"
       d="m -96.217,231.13 c -3.6531,0 -6.6146,2.9614 -6.6146,6.6146 0,3.1645 2.2227,5.8085 5.1918,6.4596 v -5.3675 c 0,-0.26176 0.04195,-0.48014 0.20326,-0.64768 0.16425,-0.17056 0.38471,-0.22048 0.64768,-0.22049 h 1.1231 c 0.26297,1e-5 0.49693,0.0447 0.6649,0.20671 0.1708,0.1647 0.20326,0.3973 0.20326,0.66146 v 5.3675 c 2.9707,-0.64981 5.1952,-3.2938 5.1952,-6.4596 0,-3.6531 -2.9614,-6.6146 -6.6146,-6.6146 z m -0.07924,2.2703 h 0.15503 c 0.49897,1e-5 0.88346,0.0821 1.1403,0.33417 0.2572,0.25247 0.34795,0.64346 0.34796,1.1369 v 0.17226 c -5e-6,0.50017 -0.0878,0.8987 -0.34796,1.1541 -0.25761,0.25295 -0.66066,0.33419 -1.1541,0.33418 h -0.14125 c -0.49957,1e-5 -0.88418,-0.078 -1.1403,-0.33418 -0.25616,-0.25614 -0.34795,-0.65452 -0.34795,-1.1541 v -0.17226 c 0,-0.49343 0.09075,-0.88441 0.34795,-1.1369 0.25686,-0.25208 0.64135,-0.33416 1.1403,-0.33417 z"
       inkscape:connector-curvature="0"
       style="fill:#0068ae;fill-opacity:1;fill-rule:evenodd" />
  </g>
  <g
     aria-label="NEEDED"
     transform="matrix(8.0617781,0,0,8.0617781,-4317.6939,759.05328)"
     style="font-style:normal;font-weight:normal;font-size:40px;line-height:1.25;font-family:sans-serif;text-align:end;letter-spacing:0px;word-spacing:0px;text-anchor:end;fill:#1a1a1a;fill-opacity:1;stroke:none"
     id="flowRoot217">
    <path
       d="m 449.28055,-14.778662 q -0.4,0 -0.72,-0.28 -0.28,-0.32 -0.28,-0.72 v -25.96 q 0,-0.44 0.28,-0.72 0.28,-0.32 0.72,-0.32 h 4.52 q 0.92,0 1.36,0.76 l 9.44,14.92 v -14.64 q 0,-0.44 0.28,-0.72 0.28,-0.32 0.72,-0.32 h 5.08 q 0.44,0 0.72,0.32 0.28,0.28 0.28,0.72 v 25.92 q 0,0.44 -0.28,0.76 -0.28,0.28 -0.72,0.28 h -4.52 q -0.92,0 -1.36,-0.76 l -9.4,-14.32 v 14.08 q 0,0.44 -0.32,0.72 -0.28,0.28 -0.72,0.28 z"
       style="font-style:normal;font-variant:normal;font-weight:bold;font-stretch:normal;font-family:Rubik;-inkscape-font-specification:'Rubik Bold';fill:#1a1a1a"
       id="path262"
       inkscape:connector-curvature="0" />
    <path
       d="m 478.10867,-14.778662 q -0.4,0 -0.72,-0.28 -0.28,-0.32 -0.28,-0.72 v -25.96 q 0,-0.44 0.28,-0.72 0.28,-0.32 0.72,-0.32 h 18.88 q 0.44,0 0.72,0.32 0.32,0.28 0.32,0.72 v 3.96 q 0,0.44 -0.32,0.72 -0.28,0.28 -0.72,0.28 h -12.64 v 5.08 h 11.76 q 0.44,0 0.72,0.32 0.32,0.28 0.32,0.72 v 3.64 q 0,0.44 -0.32,0.76 -0.28,0.28 -0.72,0.28 h -11.76 v 5.2 h 12.96 q 0.44,0 0.72,0.32 0.32,0.28 0.32,0.72 v 3.96 q 0,0.44 -0.32,0.72 -0.28,0.28 -0.72,0.28 z"
       style="font-style:normal;font-variant:normal;font-weight:bold;font-stretch:normal;font-family:Rubik;-inkscape-font-specification:'Rubik Bold';fill:#1a1a1a"
       id="path264"
       inkscape:connector-curvature="0" />
    <path
       d="m 503.8118,-14.778662 q -0.4,0 -0.72,-0.28 -0.28,-0.32 -0.28,-0.72 v -25.96 q 0,-0.44 0.28,-0.72 0.28,-0.32 0.72,-0.32 h 18.88 q 0.44,0 0.72,0.32 0.32,0.28 0.32,0.72 v 3.96 q 0,0.44 -0.32,0.72 -0.28,0.28 -0.72,0.28 h -12.64 v 5.08 h 11.76 q 0.44,0 0.72,0.32 0.32,0.28 0.32,0.72 v 3.64 q 0,0.44 -0.32,0.76 -0.28,0.28 -0.72,0.28 h -11.76 v 5.2 h 12.96 q 0.44,0 0.72,0.32 0.32,0.28 0.32,0.72 v 3.96 q 0,0.44 -0.32,0.72 -0.28,0.28 -0.72,0.28 z"
       style="font-style:normal;font-variant:normal;font-weight:bold;font-stretch:normal;font-family:Rubik;-inkscape-font-specification:'Rubik Bold';fill:#1a1a1a"
       id="path266"
       inkscape:connector-curvature="0" />
    <path
       d="m 529.51492,-14.778662 q -0.4,0 -0.72,-0.28 -0.28,-0.32 -0.28,-0.72 v -25.96 q 0,-0.44 0.28,-0.72 0.28,-0.32 0.72,-0.32 h 10.52 q 5.92,0 9.2,2.84 3.28,2.8 3.44,8.08 0.04,1.16 0.04,3.08 0,1.92 -0.04,3.04 -0.4,10.96 -12.44,10.96 z m 10.52,-6 q 2.52,0 3.72,-1.2 1.2,-1.2 1.28,-3.84 0.08,-1.16 0.08,-3 0,-1.84 -0.08,-2.96 -0.08,-2.56 -1.4,-3.76 -1.28,-1.24 -3.8,-1.24 h -3.8 v 16 z"
       style="font-style:normal;font-variant:normal;font-weight:bold;font-stretch:normal;font-family:Rubik;-inkscape-font-specification:'Rubik Bold';fill:#1a1a1a"
       id="path268"
       inkscape:connector-curvature="0" />
    <path
       d="m 558.26492,-14.778662 q -0.4,0 -0.72,-0.28 -0.28,-0.32 -0.28,-0.72 v -25.96 q 0,-0.44 0.28,-0.72 0.28,-0.32 0.72,-0.32 h 18.88 q 0.44,0 0.72,0.32 0.32,0.28 0.32,0.72 v 3.96 q 0,0.44 -0.32,0.72 -0.28,0.28 -0.72,0.28 h -12.64 v 5.08 h 11.76 q 0.44,0 0.72,0.32 0.32,0.28 0.32,0.72 v 3.64 q 0,0.44 -0.32,0.76 -0.28,0.28 -0.72,0.28 h -11.76 v 5.2 h 12.96 q 0.44,0 0.72,0.32 0.32,0.28 0.32,0.72 v 3.96 q 0,0.44 -0.32,0.72 -0.28,0.28 -0.72,0.28 z"
       style="font-style:normal;font-variant:normal;font-weight:bold;font-stretch:normal;font-family:Rubik;-inkscape-font-specification:'Rubik Bold';fill:#1a1a1a"
       id="path270"
       inkscape:connector-curvature="0" />
    <path
       d="m 583.96805,-14.778662 q -0.4,0 -0.72,-0.28 -0.28,-0.32 -0.28,-0.72 v -25.96 q 0,-0.44 0.28,-0.72 0.28,-0.32 0.72,-0.32 h 10.52 q 5.92,0 9.2,2.84 3.28,2.8 3.44,8.08 0.04,1.16 0.04,3.08 0,1.92 -0.04,3.04 -0.4,10.96 -12.44,10.96 z m 10.52,-6 q 2.52,0 3.72,-1.2 1.2,-1.2 1.28,-3.84 0.08,-1.16 0.08,-3 0,-1.84 -0.08,-2.96 -0.08,-2.56 -1.4,-3.76 -1.28,-1.24 -3.8,-1.24 h -3.8 v 16 z"
       style="font-style:normal;font-variant:normal;font-weight:bold;font-stretch:normal;font-family:Rubik;-inkscape-font-specification:'Rubik Bold';fill:#1a1a1a"
       id="path272"
       inkscape:connector-curvature="0" />
  </g>
  <g
     aria-label="BETTER LOGO"
     transform="matrix(8.0617781,0,0,8.0617781,-2507.0252,454.54967)"
     style="font-style:normal;font-weight:normal;font-size:40px;line-height:1.25;font-family:sans-serif;text-align:end;letter-spacing:0px;word-spacing:0px;text-anchor:end;fill:#1a1a1a;fill-opacity:1;stroke:none"
     id="flowRoot201">
    <path
       d="m 224.6907,-14.778662 q -0.4,0 -0.72,-0.28 -0.28,-0.32 -0.28,-0.72 v -25.96 q 0,-0.44 0.28,-0.72 0.28,-0.32 0.72,-0.32 h 12.36 q 5.08,0 7.56,2.08 2.48,2.08 2.48,5.92 0,1.92 -1.04,3.32 -1,1.4 -2.24,2.04 1.64,0.72 2.76,2.4 1.12,1.64 1.12,3.72 0,4.04 -2.68,6.28 -2.64,2.24 -7.6,2.24 z m 11.52,-16.92 q 1.48,0 2.28,-0.8 0.8,-0.8 0.8,-2.08 0,-1.24 -0.8,-2 -0.76,-0.8 -2.28,-0.8 h -5 v 5.68 z m 0.36,11.52 q 1.56,0 2.4,-0.88 0.88,-0.92 0.88,-2.24 0,-1.36 -0.88,-2.24 -0.88,-0.92 -2.4,-0.92 h -5.36 v 6.28 z"
       style="font-style:normal;font-variant:normal;font-weight:bold;font-stretch:normal;font-family:Rubik;-inkscape-font-specification:'Rubik Bold';text-align:start;text-anchor:start;fill:#1a1a1a"
       id="path241"
       inkscape:connector-curvature="0" />
    <path
       d="m 252.97195,-14.778662 q -0.4,0 -0.72,-0.28 -0.28,-0.32 -0.28,-0.72 v -25.96 q 0,-0.44 0.28,-0.72 0.28,-0.32 0.72,-0.32 h 18.88 q 0.44,0 0.72,0.32 0.32,0.28 0.32,0.72 v 3.96 q 0,0.44 -0.32,0.72 -0.28,0.28 -0.72,0.28 h -12.64 v 5.08 h 11.76 q 0.44,0 0.72,0.32 0.32,0.28 0.32,0.72 v 3.64 q 0,0.44 -0.32,0.76 -0.28,0.28 -0.72,0.28 h -11.76 v 5.2 h 12.96 q 0.44,0 0.72,0.32 0.32,0.28 0.32,0.72 v 3.96 q 0,0.44 -0.32,0.72 -0.28,0.28 -0.72,0.28 z"
       style="font-style:normal;font-variant:normal;font-weight:bold;font-stretch:normal;font-family:Rubik;-inkscape-font-specification:'Rubik Bold';text-align:start;text-anchor:start;fill:#1a1a1a"
       id="path243"
       inkscape:connector-curvature="0" />
    <path
       d="m 284.87508,-14.778662 q -0.44,0 -0.76,-0.28 -0.28,-0.28 -0.28,-0.72 v -20.48 h -7.04 q -0.44,0 -0.76,-0.28 -0.28,-0.28 -0.28,-0.72 v -4.48 q 0,-0.44 0.28,-0.72 0.32,-0.32 0.76,-0.32 h 21.72 q 0.44,0 0.72,0.32 0.32,0.28 0.32,0.72 v 4.48 q 0,0.44 -0.32,0.72 -0.28,0.28 -0.72,0.28 h -7.04 v 20.48 q 0,0.44 -0.32,0.72 -0.28,0.28 -0.72,0.28 z"
       style="font-style:normal;font-variant:normal;font-weight:bold;font-stretch:normal;font-family:Rubik;-inkscape-font-specification:'Rubik Bold';text-align:start;text-anchor:start;fill:#1a1a1a"
       id="path245"
       inkscape:connector-curvature="0" />
    <path
       d="m 310.2657,-14.778662 q -0.44,0 -0.76,-0.28 -0.28,-0.28 -0.28,-0.72 v -20.48 h -7.04 q -0.44,0 -0.76,-0.28 -0.28,-0.28 -0.28,-0.72 v -4.48 q 0,-0.44 0.28,-0.72 0.32,-0.32 0.76,-0.32 h 21.72 q 0.44,0 0.72,0.32 0.32,0.28 0.32,0.72 v 4.48 q 0,0.44 -0.32,0.72 -0.28,0.28 -0.72,0.28 h -7.04 v 20.48 q 0,0.44 -0.32,0.72 -0.28,0.28 -0.72,0.28 z"
       style="font-style:normal;font-variant:normal;font-weight:bold;font-stretch:normal;font-family:Rubik;-inkscape-font-specification:'Rubik Bold';text-align:start;text-anchor:start;fill:#1a1a1a"
       id="path247"
       inkscape:connector-curvature="0" />
    <path
       d="m 329.45633,-14.778662 q -0.4,0 -0.72,-0.28 -0.28,-0.32 -0.28,-0.72 v -25.96 q 0,-0.44 0.28,-0.72 0.28,-0.32 0.72,-0.32 h 18.88 q 0.44,0 0.72,0.32 0.32,0.28 0.32,0.72 v 3.96 q 0,0.44 -0.32,0.72 -0.28,0.28 -0.72,0.28 h -12.64 v 5.08 h 11.76 q 0.44,0 0.72,0.32 0.32,0.28 0.32,0.72 v 3.64 q 0,0.44 -0.32,0.76 -0.28,0.28 -0.72,0.28 h -11.76 v 5.2 h 12.96 q 0.44,0 0.72,0.32 0.32,0.28 0.32,0.72 v 3.96 q 0,0.44 -0.32,0.72 -0.28,0.28 -0.72,0.28 z"
       style="font-style:normal;font-variant:normal;font-weight:bold;font-stretch:normal;font-family:Rubik;-inkscape-font-specification:'Rubik Bold';text-align:start;text-anchor:start;fill:#1a1a1a"
       id="path249"
       inkscape:connector-curvature="0" />
    <path
       d="m 355.15945,-14.778662 q -0.4,0 -0.72,-0.28 -0.28,-0.32 -0.28,-0.72 v -25.96 q 0,-0.44 0.28,-0.72 0.28,-0.32 0.72,-0.32 h 11 q 5.28,0 8.24,2.4 3,2.4 3,6.76 0,2.8 -1.32,4.76 -1.28,1.96 -3.56,3.04 l 5.4,9.76 q 0.12,0.24 0.12,0.44 0,0.32 -0.24,0.6 -0.24,0.24 -0.6,0.24 h -5.64 q -1.16,0 -1.64,-1.08 l -4.4,-8.68 h -3.84 v 8.76 q 0,0.44 -0.32,0.72 -0.28,0.28 -0.72,0.28 z m 10.96,-15.64 q 1.72,0 2.6,-0.84 0.92,-0.88 0.92,-2.4 0,-1.52 -0.92,-2.44 -0.88,-0.92 -2.6,-0.92 h -4.44 v 6.6 z"
       style="font-style:normal;font-variant:normal;font-weight:bold;font-stretch:normal;font-family:Rubik;-inkscape-font-specification:'Rubik Bold';text-align:start;text-anchor:start;fill:#1a1a1a"
       id="path251"
       inkscape:connector-curvature="0" />
    <path
       d="m 391.40945,-14.778662 q -0.4,0 -0.72,-0.28 -0.28,-0.32 -0.28,-0.72 v -26 q 0,-0.44 0.28,-0.72 0.32,-0.28 0.72,-0.28 h 5.6 q 0.44,0 0.72,0.28 0.28,0.28 0.28,0.72 v 20.72 h 12 q 0.44,0 0.72,0.32 0.32,0.28 0.32,0.72 v 4.24 q 0,0.44 -0.32,0.72 -0.28,0.28 -0.72,0.28 z"
       style="font-style:normal;font-variant:normal;font-weight:bold;font-stretch:normal;font-family:Rubik;-inkscape-font-specification:'Rubik Bold';text-align:start;text-anchor:start;fill:#1a1a1a"
       id="path253"
       inkscape:connector-curvature="0" />
    <path
       d="m 425.68133,-14.378662 q -5.68,0 -8.96,-2.76 -3.28,-2.76 -3.48,-8.12 -0.04,-1.12 -0.04,-3.44 0,-2.32 0.04,-3.48 0.16,-5.28 3.48,-8.12 3.36,-2.88 8.96,-2.88 5.56,0 8.88,2.88 3.36,2.84 3.52,8.12 0.08,2.32 0.08,3.48 0,1.2 -0.08,3.44 -0.2,5.36 -3.48,8.12 -3.24,2.76 -8.92,2.76 z m 0,-6 q 2.08,0 3.32,-1.24 1.24,-1.28 1.32,-3.88 0.08,-2.32 0.08,-3.32 0,-1 -0.08,-3.24 -0.08,-2.6 -1.32,-3.84 -1.24,-1.28 -3.32,-1.28 -2.12,0 -3.36,1.28 -1.24,1.24 -1.32,3.84 -0.04,1.12 -0.04,3.24 0,2.16 0.04,3.32 0.08,2.6 1.32,3.88 1.24,1.24 3.36,1.24 z"
       style="font-style:normal;font-variant:normal;font-weight:bold;font-stretch:normal;font-family:Rubik;-inkscape-font-specification:'Rubik Bold';text-align:start;text-anchor:start;fill:#1a1a1a"
       id="path255"
       inkscape:connector-curvature="0" />
    <path
       d="m 454.39508,-14.378662 q -5.8,0 -9.08,-2.8 -3.28,-2.84 -3.48,-8.08 -0.04,-1.12 -0.04,-3.64 0,-2.52 0.04,-3.68 0.16,-5.04 3.48,-7.8 3.36,-2.8 9.08,-2.8 3.84,0 6.68,1.24 2.88,1.24 4.36,3.2 1.52,1.92 1.6,3.96 0,0.36 -0.28,0.64 -0.24,0.24 -0.6,0.24 h -6.2 q -0.4,0 -0.64,-0.12 -0.2,-0.16 -0.4,-0.44 -0.48,-1.12 -1.56,-1.92 -1.04,-0.8 -2.96,-0.8 -4.64,0 -4.8,4.8 -0.04,1.12 -0.04,3.44 0,2.32 0.04,3.48 0.16,5.08 4.88,5.08 2.32,0 3.68,-1.16 1.36,-1.16 1.36,-3.52 v -0.72 h -3.56 q -0.44,0 -0.76,-0.28 -0.28,-0.32 -0.28,-0.76 v -3.12 q 0,-0.44 0.28,-0.72 0.32,-0.32 0.76,-0.32 h 10.16 q 0.44,0 0.72,0.32 0.32,0.28 0.32,0.72 v 4.64 q 0,3.4 -1.6,5.88 -1.56,2.44 -4.44,3.76 -2.88,1.28 -6.72,1.28 z"
       style="font-style:normal;font-variant:normal;font-weight:bold;font-stretch:normal;font-family:Rubik;-inkscape-font-specification:'Rubik Bold';text-align:start;text-anchor:start;fill:#1a1a1a"
       id="path257"
       inkscape:connector-curvature="0" />
    <path
       d="m 483.18133,-14.378662 q -5.68,0 -8.96,-2.76 -3.28,-2.76 -3.48,-8.12 -0.04,-1.12 -0.04,-3.44 0,-2.32 0.04,-3.48 0.16,-5.28 3.48,-8.12 3.36,-2.88 8.96,-2.88 5.56,0 8.88,2.88 3.36,2.84 3.52,8.12 0.08,2.32 0.08,3.48 0,1.2 -0.08,3.44 -0.2,5.36 -3.48,8.12 -3.24,2.76 -8.92,2.76 z m 0,-6 q 2.08,0 3.32,-1.24 1.24,-1.28 1.32,-3.88 0.08,-2.32 0.08,-3.32 0,-1 -0.08,-3.24 -0.08,-2.6 -1.32,-3.84 -1.24,-1.28 -3.32,-1.28 -2.12,0 -3.36,1.28 -1.24,1.24 -1.32,3.84 -0.04,1.12 -0.04,3.24 0,2.16 0.04,3.32 0.08,2.6 1.32,3.88 1.24,1.24 3.36,1.24 z"
       style="font-style:normal;font-variant:normal;font-weight:bold;font-stretch:normal;font-family:Rubik;-inkscape-font-specification:'Rubik Bold';text-align:start;text-anchor:start;fill:#1a1a1a"
       id="path259"
       inkscape:connector-curvature="0" />
  </g>
</svg>
