<?xml version="1.0" encoding="UTF-8" standalone="no"?>
<!-- Created with Inkscape (http://www.inkscape.org/) -->

<svg
   xmlns:dc="http://purl.org/dc/elements/1.1/"
   xmlns:cc="http://creativecommons.org/ns#"
   xmlns:rdf="http://www.w3.org/1999/02/22-rdf-syntax-ns#"
   xmlns:svg="http://www.w3.org/2000/svg"
   xmlns="http://www.w3.org/2000/svg"
   xmlns:xlink="http://www.w3.org/1999/xlink"
   xmlns:sodipodi="http://sodipodi.sourceforge.net/DTD/sodipodi-0.dtd"
   xmlns:inkscape="http://www.inkscape.org/namespaces/inkscape"
   width="520"
   height="133"
   id="svg2"
   version="1.1">
  <g
     inkscape:label="Layer 1"
     inkscape:groupmode="layer"
     id="layer1"
     transform="translate(-248.32744,-692.908)">
    <path
       id="path10817"
       d="m 768.30568,825.90799 0.0218,-96.75583 c 0,-20.00419 -15.34598,-36.24262 -34.28356,-36.24262 l -485.71645,0 0,96.45108 c 0,20.02596 15.32421,36.54737 34.28356,36.54737 l 485.69468,0"
       style="fill:#f68b1f;fill-rule:nonzero;stroke:none" />
    <path
       id="path10819"
       d="m 679.97381,744.47637 0,-28.12341 -74.81435,0.0653 0,8.61987 0.0218,0.0653 c -6.18193,-6.4649 -17.02206,-10.97074 -34.10942,-10.97074 -30.14777,0 -40.96614,11.81967 -40.96614,29.84303 l 0,26.42555 c 0,9.07698 -1.80669,10.68776 -4.72351,10.68776 -3.02566,0 -4.72352,-2.02436 -4.72352,-10.68776 l 0,-54.04831 -36.41676,0 c -13.03863,0 -22.76864,6.13839 -29.60358,24.35766 l -11.8632,34.63184 c -1.1319,3.15626 -2.50325,3.59161 -3.96166,3.59161 l -0.26121,0 c -1.65431,0 -3.24333,-0.97953 -4.3317,-4.46231 l -4.00519,-8.51103 c 9.88238,-4.63644 13.34338,-12.45092 13.34338,-21.07078 l 0,-2.67739 c 0,-14.127 -8.14098,-25.8596 -41.37971,-25.8596 l -137.93964,0 0,28.12341 22.61626,0 0,-5.92072 c 0,-1.87199 1.52372,-3.37394 3.37394,-3.37394 l 9.07698,0.0218 0,51.82804 c 0,9.5994 7.79271,17.37034 17.39211,17.37034 l 17.1962,0 0,-19.46001 -0.21767,0.0218 c -3.43924,0 -6.22546,-2.78622 -6.22546,-6.22546 l 0,-43.53468 9.12051,-0.0218 c 1.85023,0 3.37394,1.50195 3.37394,3.37394 l 0,5.92072 21.89794,0 0,34.30533 c 0,3.43924 -2.78622,6.22546 -6.22546,6.22546 l 0.0218,19.37293 34.58831,0 0.0218,-33.54347 2.87329,0.0435 c 4.61468,0 8.64164,2.17674 10.68777,5.96425 l 14.36644,27.53569 29.23354,0 c 12.7339,0 15.47658,-2.78622 19.61238,-13.21278 l 5.05002,-14.17054 20.35246,0 -0.0435,27.38332 187.59094,0 0,-28.73289 -22.81217,0 0.0435,5.89895 c 0,1.87199 -1.52371,3.37394 -3.37393,3.37394 l -20.3307,-0.0653 0,-15.97722 17.0656,0 0,-18.58931 -17.0656,0 0,-15.1283 20.3307,0 c 1.85022,0 3.37393,1.52371 3.37393,3.3957 l -0.0435,5.92072 22.81217,0 z m -265.71393,-0.936 c 0,4.57114 -2.30734,8.27159 -13.03864,8.27159 l -11.01427,-0.0218 0,-16.63024 10.99251,0 c 10.7313,0 13.0604,3.83105 13.0604,8.38042 z m 78.10122,14.78003 -14.75826,-0.0218 2.65562,-6.83495 c 4.28817,-10.31772 7.29206,-12.9298 12.10264,-12.9298 l 0,19.78652 z m 112.71129,12.75566 -21.41906,0 0,0.74009 c 0,10.70953 -5.65951,13.03863 -12.64683,13.03863 l -0.0218,0 c -6.96555,0 -12.62506,-2.3291 -12.62506,-13.03863 l 0,-23.94408 c 0,-10.7313 5.65951,-13.03863 12.62506,-13.03863 l 0.0218,0 c 6.98732,0 12.64683,2.30733 12.64683,13.03863 l -0.0218,0.54419 21.44083,0 0,22.6598"
       style="fill:#ffffff;fill-rule:nonzero;stroke:none" />
    <path
       id="path10821"
       d="m 701.00106,799.09063 c 0,2.93859 -2.3944,5.31123 -5.33299,5.31123 -2.96036,0 -5.333,-2.37264 -5.333,-5.31123 0,-2.96036 2.37264,-5.333 5.333,-5.333 2.93859,0 5.33299,2.37264 5.33299,5.333"
       style="fill:#1c0000;fill-rule:nonzero;stroke:none" />
    <path
       id="path10823"
       d="m 734.54454,771.03252 -0.0218,24.55356 6.79141,-17.60977 c 1.58902,-3.93989 3.50454,-6.94379 7.27029,-6.94379 l 6.09486,0 -6.42137,15.62895 -4.22286,10.42656 c -1.56725,3.96166 -3.63515,7.29206 -7.4009,7.29206 l -12.05911,0.0218 0,-24.37942 c 0,-1.80669 -1.61078,-1.85023 -1.61078,-1.85023 l -6.83494,0 0,16.49965 c 0,1.30604 1.04483,2.37264 2.35087,2.37264 l 0.0871,0 0,7.35736 -6.50844,0 c -3.65691,0 -6.5955,-2.93859 -6.5955,-6.57374 l 0,-19.65591 -3.43924,0 c -0.71832,0 -1.28427,0.56595 -1.28427,1.28427 l 0,2.24204 -8.57634,0 0,-10.666 42.38102,0"
       style="fill:#1c0000;fill-rule:nonzero;stroke:none" />
  </g>
</svg>
