<?xml version="1.0" encoding="utf-8"?>
<!-- Generator: Adobe Illustrator 12.0.1, SVG Export Plug-In . SVG Version: 6.00 Build 51448)  -->
<!DOCTYPE svg PUBLIC "-//W3C//DTD SVG 1.1//EN" "http://www.w3.org/Graphics/SVG/1.1/DTD/svg11.dtd" [
	<!ENTITY ns_svg "http://www.w3.org/2000/svg">
	<!ENTITY ns_xlink "http://www.w3.org/1999/xlink">
]>
<svg  version="1.1" id="Ebene_1" xmlns="&ns_svg;" xmlns:xlink="&ns_xlink;" width="454.281" height="529.876"
	 viewBox="0 0 454.281 529.876" overflow="visible" enable-background="new 0 0 454.281 529.876" xml:space="preserve">
<g>
	<polygon points="260.792,527.78 271.357,515.127 240.191,360.94 372.036,369.035 449.294,376.146 454.281,361.251 420.358,5.968 
		408.009,1.165 212.645,328.846 	"/>
	<polygon fill="#B6866D" stroke="#000000" stroke-width="0.1046" points="0.056,76.134 410.716,0.062 449.294,376.146 
		234.308,368.036 261.721,527.918 241.691,529.819 210.393,366.296 24.219,355.998 	"/>
	<line stroke="#000000" stroke-width="0.1046" x1="430.123" y1="187.784" x2="12.742" y2="220.005"/>
	<line stroke="#000000" stroke-width="0.1046" x1="437.91" y1="264.308" x2="17.207" y2="281.654"/>
	<line stroke="#000000" stroke-width="0.1046" x1="445" y1="333.873" x2="21.982" y2="323.704"/>
	<g>
		<path d="M370.752,57.274c1.509,7.862,1.778,16.141,2.546,24.278c-3.234,0.984-7.148,0.357-9.838,2.578
			c1.4,4.475-0.41,10.562,2.35,14.366l-0.504,0.016c-0.155,6.785,0.952,13.907,1.553,20.793c2.44,1.679,5.229,2.593,7.781,3.766
			c-1.028,3.173-4.787,3.42-6.973,5.751c-0.229,4.528,0.773,8.388,1.283,12.516c0.196,2.128-0.196,5.531,0.756,7.761
			c-0.486,4.411,1.295,8.999,0.826,13.912c3.568,1.642,7.23-1.616,10.441,0.541c0.489,7.393,1.893,15.886,1.638,23.555
			c-8.933,3.303-18.516-5.679-26.563,1.739c-2.733,0.841-6.009,0.571-9.018,0.668l-2.142-23.413
			c2.604-1.088,6.026-0.069,8.505-1.153c0.516-11.193-1.975-22.163-2.836-33.311l-0.492,0.393l-0.387-0.363l-21.645,2.458
			l-0.832,1.408c0.592,6.636,1.301,13.143,2.021,19.775l-0.486,0.517c0.489,3.5,1.471,6.608,1.213,10.383
			c2.83,2.043,5.76-0.563,9.047,0.083c1.453,6.107,1.664,12.63,2.493,18.88c-0.217,1.138,0.097,3.012,0.146,4.516
			c-8.177,3.404-17.068-3.592-24.806,1.808l-9.504,1.187c-0.636-8.016-1.781-16.267-1.652-23.93
			c2.253-0.199,5.906,0.185,8.514-0.778c-0.855-10.897-1.222-22.187-2.821-32.808c-2.786-0.79-4.872-3.107-7.77-3.39l6.976-5.626
			c-1.623-11.373-1.269-23.691-3.762-34.786c-0.243,0.259-0.48,0.643-0.987,0.535c-2.147-0.308-5.376,0.801-7.652,0.246
			c-0.647-8.391-1.749-15.262-1.638-23.427c4.986-1.166,11.411-0.495,16.711,0.338c5.191-2.555,10.512-4.986,16.523-5.558
			c1.506,7.737,1.752,15.388,2.654,23.897c-2.563,2.218-7.166-0.271-9.457,2.566c1.066,1.975,0.026,4.771,1.096,6.746
			c0.188,1.876-0.085,5.15,0.738,7.258c-0.038,6.656,0.703,14.042,2.048,20.653c7.907-0.13,14.991-2.369,22.898-2.499
			c0.639-11.322-2.229-22.279-2.35-33.828c-1.324-5.984-12.952,3.308-10.228-5.571c-0.592-6.636-1.324-13.77-1.896-19.778
			c5.61-1.311,11.265-1.118,16.696-0.164c5.851-1.569,11.285-4.383,17.402-5.459L370.752,57.274z"/>
		<path d="M282.542,70.928c2.777,12.091,1.67,24.432,4.447,36.523l0.375-0.013c-0.229,0.636-0.331,1.392-0.82,1.784
			c0.571,2.117,0.703,6.256,0.782,8.64c-4.128,0.51-8.124,1.141-12.252,1.652c-0.694-5.88-0.899-12.277-2.341-18.006
			c0.475-0.895-1.069-1.975-1.482-3.092c-2.657-0.667-6.097-2.188-8.543-0.1c-0.475,4.661,1.298,8.999,0.8,13.033
			c0.261,0.243,0.645,0.482,0.53,0.863l-0.486,0.517c0.721,6.757,1.459,14.017,2.039,20.276c2.306,1.433,5.824,1.444,6.902,3.795
			c-1.67,2.691-7.084,2.238-6.082,6.098l2.689,28.793c3.715,2.142,10.055-3.715,9.653,3.33l-0.486,0.519l1.978,18.394
			c-4.834,2.041-10.887,1.232-15.346-0.759c-5.361,1.178-9.92,3.836-15.703,3.647c-1.471-6.608-1.734-14.761-2.602-22.141
			c2.484-0.959,5.897-0.192,8.115-1.519c-0.938-9.513-2.273-19.767-2.739-30.299c-2.194-1.812-4.819-1.477-6.888-3.293
			c1.04-2.796,4.951-2.294,5.625-4.702c-0.727-10.775-1.588-21.923-2.294-32.071l-1.104-3.104c-2.865,0.721-5.862,1.194-7.91,3.898
			c-0.565,5.793-0.363,12.066,0.598,18.439l0.059,1.881l-11.75,1.636l-4.233-45.445c5.362-1.178,10.909-0.478,15.833,0.368
			c4.301-2.902,9.662-4.08,14.78-5c6.34-1.963,13.834,4.45,18.896-1.992C276.695,72.624,279.285,71.159,282.542,70.928z"/>
		<path d="M211.587,82.264c1.373,7.49,1.579,13.888,2.458,21.645c-15.384-2.014-4.384,15.838-6.516,23.692l1.356,10.881l6.875,2.917
			c-2.205,1.704-3.917,3.141-6.239,5.099c1.162,12.645,2.96,25.521,3.488,37.935c0.032,4.896-2.609,8.622-5.502,12.357
			c-9.699,6.844-24.006,7.055-34.216,1.986c-9.073-8.748-8.265-22.586-9.278-34.482c-2.314-5.577,2.77-15.283-6.768-15.101
			c-0.092-2.884,3.145-3.743,4.714-5.676l-2.717-29.672c-1.729-2.959-4.888,0.283-7.68-0.631l-1.693-21.292
			c7.169-3.497,14.332,4.433,19.887-2.402c2.092-1.323,4.727-1.408,7.094-1.986c1.112,3.354,0.186,5.77,1.671,8.985l-0.363,0.39
			c0.384,4.131,1.384,7.866,1.271,12.138c-2.602,1.09-6.778,0.095-7.563,3.009c1.219,2.723-0.29,6.539,1.547,8.99
			c-0.962,1.288,0.016,4.395-0.186,5.908c0.41,4.885,1.567,9.618,1.361,14.899c2.048,1.189,5.104,2.473,6.403,3.812
			c-1.559,2.31-4.422,3.031-5.609,5.205c1.765,7.979,0.965,18.176,3.495,26.508c1.988,3.199,5.868,2.823,9.149,3.346
			c3.221-1.361,7.753-1.005,9.371-5.328c2.213-9.237-1.588-18.029-1.39-27.454l-6.39-3.435c0.914-2.792,4.709-1.91,5.75-4.707
			c-0.502-11.662-2.187-21.023-3.309-32.416c-2.225,1.078-5.147,0.042-7.247,1.115c-1.356-6.989-2.095-14.247-2.083-21.656
			c4.374-0.645,9.999-1.455,14.077,0.423C201.107,84.362,206.347,83.313,211.587,82.264z"/>
		<path d="M81.545,103.173c1.815,13.377,1.771,27.567,4.075,40.553c-3.1,1.23-6.344,1.837-9.864,1.701
			c-0.98-7,0.05-17.833-8.448-20.446c-2.092,1.324-5.111,1.17-6.158,3.715c-0.573,9.437,3.037,20.12,12.126,25.475
			c2.521,0.296,4.475-1.4,6.773-0.218c-0.59,1.148-1.181,2.298-2.156,3.208c13.011,10.128,18.054,26.288,14.936,42.461
			c-1.545,6.58-9.003,8.956-14.999,9.904c-6.899,0.223-12.8-3.605-19.066,0.617l-2.243,0.574
			c-2.64-11.717-1.937-24.926-3.831-36.918c3.148,0.275,11.435-3.636,10.512,2.798c0.381,4.006-0.938,9.826,3.546,12.568
			c3.687,1.387,8.955,1.217,11.604-2.259c3.625-4.386,0.549-10.189-1.345-14.396c-3.015-3.921-6.135-7.21-9.756-10.484l-5.508,0.555
			c0.311-2.019,2.492-4.475,0.299-6.289c-11.873-9.913-16.422-26.339-13.54-42.003c3.168-6.883,11.139-8.9,18.677-8.767
			C73.07,108.973,75.756,102.732,81.545,103.173z"/>
		<path d="M137.22,104.637c1.96,6.215,1.824,13.627,3.417,20.231l0.376-0.012l-0.836,1.283l2.024,19.9
			c1.922,1.192,4.075,1.752,6.013,3.447c-10.213,2.59-2.669,14.527-3.845,20.843c-0.308,9.929,4.364,22.336-2.644,30.85
			c-7.452,6.394-17.386,5.962-26.965,4.891c-6.709-1.667-9.7-8.728-10.922-15.469c-2.717-10.208-1.484-22.554-4.2-32.763
			l-5.09-2.096c4.069-2.266,5.915-7.349,4.134-11.937c-0.073-2.257-0.202-6.271-0.277-8.53c-0.801-9.267-3.996-22.598,1.248-31.307
			c6.691-6.621,16.043-8.681,25.482-7.982C129.937,96.836,135.318,100.178,137.22,104.637z M114.169,117.939
			c-7.396,4.258-3.365,12.415-3.521,19.201l-0.365,0.388c0.51,4.126,1.143,8.125,1.774,12.123c1.796,1.197,4.321,1.617,5.511,3.463
			c-1.837,1.44-3.803,2.76-5.247,4.69c2.559,9.209-0.876,19.491,5.769,26.936c3.965,2.257,9.708,1.192,13.143-1.304
			c3.114-8.514-1.349-18.415-0.905-27.973l-5.621-2.958c1.068-1.917,2.771-3.605,4.854-5.18c0.458-1.396-0.962-2.606-0.117-3.637
			c-1.752-7.604-1.296-16.784-3.032-23.886C123.254,115.386,118.561,117.797,114.169,117.939z"/>
	</g>
	<g>
		<path d="M382.105,208.172c1.377,7.616,2.021,15.883,2.019,23.543c-2.426-1.178-4.761,0.404-7.137,0.606l-30.674,30l-0.463,1.27
			c12.858,13.147,26.191,29.416,39.806,42.661l5.394-0.173c0.618,3.621,1.248,7.491,1.743,11.244
			c0.07,2.133,0.193,5.897,0.264,8.027c-0.595,1.151,1.438,1.837,0.088,2.76c-6.504,0.838-14.068-0.173-20.423-2.479
			c-5.833,2.071-12.609,2.294-19.386,2.388c0.126-7.793-2.988-14.725-1.608-22.553c3.662,0.636,6.422,0.545,9.908-0.319
			c-11.563-12.056-22.811-25.884-34.116-37.696c-0.967,1.286-0.141,3.519-0.357,4.529c1.802,9.111,1.412,20.297,3.176,28.277
			c0.161,1.125-0.258,3.65,0.662,5.001c3.448,1.772,11.089-2.745,10.907,3.29c-0.732,0.65-0.319,1.767-0.419,2.648l0.521,0.486
			c-0.246,0.258-0.612,0.521-0.475,0.894l0.516,0.486l-0.489,0.393c0.524,4.503,1.556,9.243,1.444,13.515
			c-6.129,0.826-13.318-0.196-19.169-2.52c-6.117,1.078-12.229,2.405-18.882,2.496c-1.371-7.491-1.966-14.253-2.08-21.656
			c2.895,0.158,6.53,0.038,9.044,0.082l0.946-1.787l-2.774-27.536c-2.675-1.169-5.479-2.458-8.282-3.75l-0.029-0.876
			c2.49-0.586,4.723-1.535,6.686-2.982c-0.1-10.794-0.855-22.573-2.338-33.324c-3.434-1.396-6.773,0.22-10.049-0.177l-1.957-21.661
			c6.885-0.725,13.201,0.453,19.389,1.633l0.979-0.911c5.376-0.675,10.705-2.858,16.125-2.279c0.352-0.765,1.242-0.417,1.863-0.563
			c0.261,8.027,1.828,13.753,2.458,21.643c-3.349,1.239-7.793-0.249-10.743,1.73c0.762,8.011,1.025,16.165,2.531,23.902
			c9.533-8.095,19.031-17.191,28.061-25.395l-10.298-0.044c-0.759-7.885-1.468-14.268-2.098-22.157
			c0.378,0.113,0.618-0.271,0.864-0.404c0.539,1.112,0.984-0.659,1.758-0.057c7.4-0.24,15.167,3.151,21.741,0.552
			C371.869,210.01,376.588,208.477,382.105,208.172z"/>
		<path d="M270.964,227.213c3.428,5.038-1.072,17.364,8.361,17.813l3.164,0.776c-1.898,3.327-11.725,2.388-7.359,9.28
			c-0.067,5.651-4.055,10.553-8.215,13.828c5.883,3.322,9.826,8.722,10.922,15.466l2.021,19.775
			c3.053,1.157,7.069,1.151,9.955,1.058l1.564,21.17c-9.926-0.053-20.83,0.551-26.871-7.667c-4.289-12.293-2.514-27.293-6.68-39.589
			c-5.678-4.714-13.313-3.964-20.479-4.236l-3.609,0.996c0.188,9.662,2.47,18.129,2.678,28.418l9.563,0.568
			c0.407,4.887,1.573,9.87,1.342,14.399c1.529,0.703-0.955,1.538,0.574,2.241c-0.97,1.037,0.451,2.244,0.117,3.639
			c-8.607,1.658-15.955-4.257-23.641-1.119c-3.488,0.867-6.661-0.161-9.894,0.82c-1.642-4.213-1.182-9.378-1.834-14.004
			c-0.19-2.004-0.631-3.996-0.579-6.258l8.153-0.264c-0.05-9.293-1.241-18.92-1.925-28.441l-7.269-3.407
			c0.898-3.296,5.24-1.049,6.645-4.233l-2.832-29.292c-2.436-1.553-5.912-0.311-9.06-0.586c-0.491-7.392-1.685-13.255-1.535-20.292
			c5.745-0.939,10.443,0.668,15.501,1.759C236.558,215.52,258.806,212.288,270.964,227.213z M231.129,237.921
			c0.214,2.755-0.153,6.911,0.826,10.018l-0.489,0.393c0.691,5.88,1.26,11.763,1.951,17.643c6.885-0.725,14.086,0.674,20.654-2.049
			c4.617-4.796,4.239-12.568,2.66-18.671C251.869,234.612,239.968,239.394,231.129,237.921z"/>
		<path d="M109.43,233.32c2.824,5.81-1.342,16.745,8.596,17.301c-7.903,0.256-4.717,9.445-5.801,14.753
			c-1.796,2.697-3.321,6.008-7.044,7.385c-7.352,1.746-15.209,3.381-22.882,3l-0.85,0.908c0.964,6.498,0.564,13.541,1.9,19.904
			c0.174,1.5-0.104,4.523,0.705,6.255c2.396,0.302,5.058,1.093,7.304,0.642l1.827,17.648c-7.323,2.622-13.446-4.213-20.725-0.211
			l-6.385,0.586c-0.567-5.883-1.289-12.642-1.838-18.023c2.213-1.453,4.288,0.615,6.773-0.22c-0.013-8.159-1.172-16.79-1.819-25.181
			l-5.889-3.451c1.068-1.916,3.832-1.881,5.276-3.812L66.45,247.77c-2.156-0.683,0.319-1.768-0.604-3.119
			c-2.52-0.296-4.548-0.858-7.162-0.145c-0.939-5.747-1.025-12.272-1.45-17.659c4.11-1.012,9.019-0.668,12.589,0.974
			C82.618,223.515,100.247,221.186,109.43,233.32z M92.081,244.304c-4.395,0.016-8.713-1.477-13.062-0.079
			c-0.003,7.66,0.738,15.044,2.098,22.157l-0.489,0.393c0.498-0.144,0.634,0.231,0.894,0.472c4.622-0.776,12.293-0.396,16.173-4.666
			c1.088-5.184,1.238-12.22-1.919-16.639L92.081,244.304z"/>
		<path d="M175.561,239.719c-2.622,0.461-6.045-0.558-8.121,1.267c3.809,9.044,6.382,18.754,9.573,28.071
			c2.569,1.799,5.71,1.822,8.271,3.372l-5.401,3.817c2.688,9.328,6.614,18.117,9.548,27.316c2.31,1.556,5.786,0.313,8.558,0.601
			c1.583,6.226,1.204,13.901,1.537,20.294c-9.271,0.674-16.992-5.104-26.152-1.037l-5.019,0.161l-1.503-19.289
			c2.254-0.199,4.775,0.097,6.757-0.721c-2.084-6.211-4.047-12.554-6.006-18.765c-4.75,0.653-9.817-0.688-14.944-0.021
			c-2.038,6.847-0.754,11.575-2.158,18.653c2.181,1.436,7.352-1.746,7.359,2.399c-0.554,6.17,1.762,11.745,0.573,17.687
			c-6.51,0.586-12.431-3.867-18.637-1.658c-2.987,0.85-6.636,0.592-9.898,0.697l-1.992-18.896c2.742-0.592,4.548,0.858,7.292,0.267
			c2.228-8.736,2.681-18.044,4.529-26.892l-5.508-3.34l6.656-3.855c0.945-9.574,3.546-18.448,3.986-28.131
			c-2.411-0.801-4.925-0.845-7.683-0.756l-1.491-18.913c5.01-0.413,10.803,0.152,16.334,0.35c2.824,1.917,5.88-0.691,9.003-1.17
			c4.132-0.385,7.988-1.513,12.516-1.283L175.561,239.719z M157.665,257.124l-0.371,4.03c-1.219,5.061-2.93,10.393-2.641,15.406
			l10.411-0.337l-0.514-0.36C162.085,269.537,159.507,263.594,157.665,257.124z"/>
	</g>
	<line stroke="#000000" stroke-width="0.1046" x1="423.455" y1="124.166" x2="6.978" y2="156.343"/>
	<line stroke="#000000" stroke-width="0.1046" x1="416.514" y1="56.162" x2="3.863" y2="103.794"/>
</g>
</svg>
